%TF.GenerationSoftware,KiCad,Pcbnew,9.0.7-9.0.7~ubuntu22.04.1*%
%TF.CreationDate,2026-01-30T05:50:44+05:30*%
%TF.ProjectId,SOLDERING_IRON_CONTROLLER,534f4c44-4552-4494-9e47-5f49524f4e5f,rev?*%
%TF.SameCoordinates,Original*%
%TF.FileFunction,Legend,Top*%
%TF.FilePolarity,Positive*%
%FSLAX46Y46*%
G04 Gerber Fmt 4.6, Leading zero omitted, Abs format (unit mm)*
G04 Created by KiCad (PCBNEW 9.0.7-9.0.7~ubuntu22.04.1) date 2026-01-30 05:50:44*
%MOMM*%
%LPD*%
G01*
G04 APERTURE LIST*
%ADD10C,0.200000*%
%ADD11C,0.150000*%
%ADD12C,0.120000*%
%ADD13C,0.127000*%
%ADD14C,0.300000*%
G04 APERTURE END LIST*
D10*
X178437945Y-54272542D02*
X178390326Y-54320161D01*
X178390326Y-54320161D02*
X178295088Y-54367780D01*
X178295088Y-54367780D02*
X178056993Y-54367780D01*
X178056993Y-54367780D02*
X177961755Y-54320161D01*
X177961755Y-54320161D02*
X177914136Y-54272542D01*
X177914136Y-54272542D02*
X177866517Y-54177304D01*
X177866517Y-54177304D02*
X177866517Y-54082066D01*
X177866517Y-54082066D02*
X177914136Y-53939209D01*
X177914136Y-53939209D02*
X178485564Y-53367780D01*
X178485564Y-53367780D02*
X177866517Y-53367780D01*
X177533183Y-54367780D02*
X176914136Y-54367780D01*
X176914136Y-54367780D02*
X177247469Y-53986828D01*
X177247469Y-53986828D02*
X177104612Y-53986828D01*
X177104612Y-53986828D02*
X177009374Y-53939209D01*
X177009374Y-53939209D02*
X176961755Y-53891590D01*
X176961755Y-53891590D02*
X176914136Y-53796352D01*
X176914136Y-53796352D02*
X176914136Y-53558257D01*
X176914136Y-53558257D02*
X176961755Y-53463019D01*
X176961755Y-53463019D02*
X177009374Y-53415400D01*
X177009374Y-53415400D02*
X177104612Y-53367780D01*
X177104612Y-53367780D02*
X177390326Y-53367780D01*
X177390326Y-53367780D02*
X177485564Y-53415400D01*
X177485564Y-53415400D02*
X177533183Y-53463019D01*
X176295088Y-54367780D02*
X176199850Y-54367780D01*
X176199850Y-54367780D02*
X176104612Y-54320161D01*
X176104612Y-54320161D02*
X176056993Y-54272542D01*
X176056993Y-54272542D02*
X176009374Y-54177304D01*
X176009374Y-54177304D02*
X175961755Y-53986828D01*
X175961755Y-53986828D02*
X175961755Y-53748733D01*
X175961755Y-53748733D02*
X176009374Y-53558257D01*
X176009374Y-53558257D02*
X176056993Y-53463019D01*
X176056993Y-53463019D02*
X176104612Y-53415400D01*
X176104612Y-53415400D02*
X176199850Y-53367780D01*
X176199850Y-53367780D02*
X176295088Y-53367780D01*
X176295088Y-53367780D02*
X176390326Y-53415400D01*
X176390326Y-53415400D02*
X176437945Y-53463019D01*
X176437945Y-53463019D02*
X176485564Y-53558257D01*
X176485564Y-53558257D02*
X176533183Y-53748733D01*
X176533183Y-53748733D02*
X176533183Y-53986828D01*
X176533183Y-53986828D02*
X176485564Y-54177304D01*
X176485564Y-54177304D02*
X176437945Y-54272542D01*
X176437945Y-54272542D02*
X176390326Y-54320161D01*
X176390326Y-54320161D02*
X176295088Y-54367780D01*
X175676040Y-54367780D02*
X175342707Y-53367780D01*
X175342707Y-53367780D02*
X175009374Y-54367780D01*
X173961754Y-53653495D02*
X173485564Y-53653495D01*
X174056992Y-53367780D02*
X173723659Y-54367780D01*
X173723659Y-54367780D02*
X173390326Y-53367780D01*
X172485564Y-53463019D02*
X172533183Y-53415400D01*
X172533183Y-53415400D02*
X172676040Y-53367780D01*
X172676040Y-53367780D02*
X172771278Y-53367780D01*
X172771278Y-53367780D02*
X172914135Y-53415400D01*
X172914135Y-53415400D02*
X173009373Y-53510638D01*
X173009373Y-53510638D02*
X173056992Y-53605876D01*
X173056992Y-53605876D02*
X173104611Y-53796352D01*
X173104611Y-53796352D02*
X173104611Y-53939209D01*
X173104611Y-53939209D02*
X173056992Y-54129685D01*
X173056992Y-54129685D02*
X173009373Y-54224923D01*
X173009373Y-54224923D02*
X172914135Y-54320161D01*
X172914135Y-54320161D02*
X172771278Y-54367780D01*
X172771278Y-54367780D02*
X172676040Y-54367780D01*
X172676040Y-54367780D02*
X172533183Y-54320161D01*
X172533183Y-54320161D02*
X172485564Y-54272542D01*
X124392780Y-95961816D02*
X124392780Y-96533244D01*
X123392780Y-96247530D02*
X124392780Y-96247530D01*
X123916590Y-96866578D02*
X123916590Y-97199911D01*
X123392780Y-97342768D02*
X123392780Y-96866578D01*
X123392780Y-96866578D02*
X124392780Y-96866578D01*
X124392780Y-96866578D02*
X124392780Y-97342768D01*
X123392780Y-97771340D02*
X124392780Y-97771340D01*
X124392780Y-97771340D02*
X123678495Y-98104673D01*
X123678495Y-98104673D02*
X124392780Y-98438006D01*
X124392780Y-98438006D02*
X123392780Y-98438006D01*
X123392780Y-98914197D02*
X124392780Y-98914197D01*
X124392780Y-98914197D02*
X124392780Y-99295149D01*
X124392780Y-99295149D02*
X124345161Y-99390387D01*
X124345161Y-99390387D02*
X124297542Y-99438006D01*
X124297542Y-99438006D02*
X124202304Y-99485625D01*
X124202304Y-99485625D02*
X124059447Y-99485625D01*
X124059447Y-99485625D02*
X123964209Y-99438006D01*
X123964209Y-99438006D02*
X123916590Y-99390387D01*
X123916590Y-99390387D02*
X123868971Y-99295149D01*
X123868971Y-99295149D02*
X123868971Y-98914197D01*
X123440400Y-100628483D02*
X123392780Y-100771340D01*
X123392780Y-100771340D02*
X123392780Y-101009435D01*
X123392780Y-101009435D02*
X123440400Y-101104673D01*
X123440400Y-101104673D02*
X123488019Y-101152292D01*
X123488019Y-101152292D02*
X123583257Y-101199911D01*
X123583257Y-101199911D02*
X123678495Y-101199911D01*
X123678495Y-101199911D02*
X123773733Y-101152292D01*
X123773733Y-101152292D02*
X123821352Y-101104673D01*
X123821352Y-101104673D02*
X123868971Y-101009435D01*
X123868971Y-101009435D02*
X123916590Y-100818959D01*
X123916590Y-100818959D02*
X123964209Y-100723721D01*
X123964209Y-100723721D02*
X124011828Y-100676102D01*
X124011828Y-100676102D02*
X124107066Y-100628483D01*
X124107066Y-100628483D02*
X124202304Y-100628483D01*
X124202304Y-100628483D02*
X124297542Y-100676102D01*
X124297542Y-100676102D02*
X124345161Y-100723721D01*
X124345161Y-100723721D02*
X124392780Y-100818959D01*
X124392780Y-100818959D02*
X124392780Y-101057054D01*
X124392780Y-101057054D02*
X124345161Y-101199911D01*
X123916590Y-101628483D02*
X123916590Y-101961816D01*
X123392780Y-102104673D02*
X123392780Y-101628483D01*
X123392780Y-101628483D02*
X124392780Y-101628483D01*
X124392780Y-101628483D02*
X124392780Y-102104673D01*
X123392780Y-102533245D02*
X124392780Y-102533245D01*
X124392780Y-102533245D02*
X123392780Y-103104673D01*
X123392780Y-103104673D02*
X124392780Y-103104673D01*
X123440400Y-103533245D02*
X123392780Y-103676102D01*
X123392780Y-103676102D02*
X123392780Y-103914197D01*
X123392780Y-103914197D02*
X123440400Y-104009435D01*
X123440400Y-104009435D02*
X123488019Y-104057054D01*
X123488019Y-104057054D02*
X123583257Y-104104673D01*
X123583257Y-104104673D02*
X123678495Y-104104673D01*
X123678495Y-104104673D02*
X123773733Y-104057054D01*
X123773733Y-104057054D02*
X123821352Y-104009435D01*
X123821352Y-104009435D02*
X123868971Y-103914197D01*
X123868971Y-103914197D02*
X123916590Y-103723721D01*
X123916590Y-103723721D02*
X123964209Y-103628483D01*
X123964209Y-103628483D02*
X124011828Y-103580864D01*
X124011828Y-103580864D02*
X124107066Y-103533245D01*
X124107066Y-103533245D02*
X124202304Y-103533245D01*
X124202304Y-103533245D02*
X124297542Y-103580864D01*
X124297542Y-103580864D02*
X124345161Y-103628483D01*
X124345161Y-103628483D02*
X124392780Y-103723721D01*
X124392780Y-103723721D02*
X124392780Y-103961816D01*
X124392780Y-103961816D02*
X124345161Y-104104673D01*
X124392780Y-104723721D02*
X124392780Y-104914197D01*
X124392780Y-104914197D02*
X124345161Y-105009435D01*
X124345161Y-105009435D02*
X124249923Y-105104673D01*
X124249923Y-105104673D02*
X124059447Y-105152292D01*
X124059447Y-105152292D02*
X123726114Y-105152292D01*
X123726114Y-105152292D02*
X123535638Y-105104673D01*
X123535638Y-105104673D02*
X123440400Y-105009435D01*
X123440400Y-105009435D02*
X123392780Y-104914197D01*
X123392780Y-104914197D02*
X123392780Y-104723721D01*
X123392780Y-104723721D02*
X123440400Y-104628483D01*
X123440400Y-104628483D02*
X123535638Y-104533245D01*
X123535638Y-104533245D02*
X123726114Y-104485626D01*
X123726114Y-104485626D02*
X124059447Y-104485626D01*
X124059447Y-104485626D02*
X124249923Y-104533245D01*
X124249923Y-104533245D02*
X124345161Y-104628483D01*
X124345161Y-104628483D02*
X124392780Y-104723721D01*
X123392780Y-106152292D02*
X123868971Y-105818959D01*
X123392780Y-105580864D02*
X124392780Y-105580864D01*
X124392780Y-105580864D02*
X124392780Y-105961816D01*
X124392780Y-105961816D02*
X124345161Y-106057054D01*
X124345161Y-106057054D02*
X124297542Y-106104673D01*
X124297542Y-106104673D02*
X124202304Y-106152292D01*
X124202304Y-106152292D02*
X124059447Y-106152292D01*
X124059447Y-106152292D02*
X123964209Y-106104673D01*
X123964209Y-106104673D02*
X123916590Y-106057054D01*
X123916590Y-106057054D02*
X123868971Y-105961816D01*
X123868971Y-105961816D02*
X123868971Y-105580864D01*
X170033183Y-54367780D02*
X169461755Y-54367780D01*
X169747469Y-53367780D02*
X169747469Y-54367780D01*
X169128421Y-53891590D02*
X168795088Y-53891590D01*
X168652231Y-53367780D02*
X169128421Y-53367780D01*
X169128421Y-53367780D02*
X169128421Y-54367780D01*
X169128421Y-54367780D02*
X168652231Y-54367780D01*
X168223659Y-53367780D02*
X168223659Y-54367780D01*
X168223659Y-54367780D02*
X167890326Y-53653495D01*
X167890326Y-53653495D02*
X167556993Y-54367780D01*
X167556993Y-54367780D02*
X167556993Y-53367780D01*
X167080802Y-53367780D02*
X167080802Y-54367780D01*
X167080802Y-54367780D02*
X166699850Y-54367780D01*
X166699850Y-54367780D02*
X166604612Y-54320161D01*
X166604612Y-54320161D02*
X166556993Y-54272542D01*
X166556993Y-54272542D02*
X166509374Y-54177304D01*
X166509374Y-54177304D02*
X166509374Y-54034447D01*
X166509374Y-54034447D02*
X166556993Y-53939209D01*
X166556993Y-53939209D02*
X166604612Y-53891590D01*
X166604612Y-53891590D02*
X166699850Y-53843971D01*
X166699850Y-53843971D02*
X167080802Y-53843971D01*
X165366516Y-53415400D02*
X165223659Y-53367780D01*
X165223659Y-53367780D02*
X164985564Y-53367780D01*
X164985564Y-53367780D02*
X164890326Y-53415400D01*
X164890326Y-53415400D02*
X164842707Y-53463019D01*
X164842707Y-53463019D02*
X164795088Y-53558257D01*
X164795088Y-53558257D02*
X164795088Y-53653495D01*
X164795088Y-53653495D02*
X164842707Y-53748733D01*
X164842707Y-53748733D02*
X164890326Y-53796352D01*
X164890326Y-53796352D02*
X164985564Y-53843971D01*
X164985564Y-53843971D02*
X165176040Y-53891590D01*
X165176040Y-53891590D02*
X165271278Y-53939209D01*
X165271278Y-53939209D02*
X165318897Y-53986828D01*
X165318897Y-53986828D02*
X165366516Y-54082066D01*
X165366516Y-54082066D02*
X165366516Y-54177304D01*
X165366516Y-54177304D02*
X165318897Y-54272542D01*
X165318897Y-54272542D02*
X165271278Y-54320161D01*
X165271278Y-54320161D02*
X165176040Y-54367780D01*
X165176040Y-54367780D02*
X164937945Y-54367780D01*
X164937945Y-54367780D02*
X164795088Y-54320161D01*
X164366516Y-53891590D02*
X164033183Y-53891590D01*
X163890326Y-53367780D02*
X164366516Y-53367780D01*
X164366516Y-53367780D02*
X164366516Y-54367780D01*
X164366516Y-54367780D02*
X163890326Y-54367780D01*
X163461754Y-53367780D02*
X163461754Y-54367780D01*
X163461754Y-54367780D02*
X162890326Y-53367780D01*
X162890326Y-53367780D02*
X162890326Y-54367780D01*
X162461754Y-53415400D02*
X162318897Y-53367780D01*
X162318897Y-53367780D02*
X162080802Y-53367780D01*
X162080802Y-53367780D02*
X161985564Y-53415400D01*
X161985564Y-53415400D02*
X161937945Y-53463019D01*
X161937945Y-53463019D02*
X161890326Y-53558257D01*
X161890326Y-53558257D02*
X161890326Y-53653495D01*
X161890326Y-53653495D02*
X161937945Y-53748733D01*
X161937945Y-53748733D02*
X161985564Y-53796352D01*
X161985564Y-53796352D02*
X162080802Y-53843971D01*
X162080802Y-53843971D02*
X162271278Y-53891590D01*
X162271278Y-53891590D02*
X162366516Y-53939209D01*
X162366516Y-53939209D02*
X162414135Y-53986828D01*
X162414135Y-53986828D02*
X162461754Y-54082066D01*
X162461754Y-54082066D02*
X162461754Y-54177304D01*
X162461754Y-54177304D02*
X162414135Y-54272542D01*
X162414135Y-54272542D02*
X162366516Y-54320161D01*
X162366516Y-54320161D02*
X162271278Y-54367780D01*
X162271278Y-54367780D02*
X162033183Y-54367780D01*
X162033183Y-54367780D02*
X161890326Y-54320161D01*
X161271278Y-54367780D02*
X161080802Y-54367780D01*
X161080802Y-54367780D02*
X160985564Y-54320161D01*
X160985564Y-54320161D02*
X160890326Y-54224923D01*
X160890326Y-54224923D02*
X160842707Y-54034447D01*
X160842707Y-54034447D02*
X160842707Y-53701114D01*
X160842707Y-53701114D02*
X160890326Y-53510638D01*
X160890326Y-53510638D02*
X160985564Y-53415400D01*
X160985564Y-53415400D02*
X161080802Y-53367780D01*
X161080802Y-53367780D02*
X161271278Y-53367780D01*
X161271278Y-53367780D02*
X161366516Y-53415400D01*
X161366516Y-53415400D02*
X161461754Y-53510638D01*
X161461754Y-53510638D02*
X161509373Y-53701114D01*
X161509373Y-53701114D02*
X161509373Y-54034447D01*
X161509373Y-54034447D02*
X161461754Y-54224923D01*
X161461754Y-54224923D02*
X161366516Y-54320161D01*
X161366516Y-54320161D02*
X161271278Y-54367780D01*
X159842707Y-53367780D02*
X160176040Y-53843971D01*
X160414135Y-53367780D02*
X160414135Y-54367780D01*
X160414135Y-54367780D02*
X160033183Y-54367780D01*
X160033183Y-54367780D02*
X159937945Y-54320161D01*
X159937945Y-54320161D02*
X159890326Y-54272542D01*
X159890326Y-54272542D02*
X159842707Y-54177304D01*
X159842707Y-54177304D02*
X159842707Y-54034447D01*
X159842707Y-54034447D02*
X159890326Y-53939209D01*
X159890326Y-53939209D02*
X159937945Y-53891590D01*
X159937945Y-53891590D02*
X160033183Y-53843971D01*
X160033183Y-53843971D02*
X160414135Y-53843971D01*
D11*
X182093333Y-103839819D02*
X181760000Y-103363628D01*
X181521905Y-103839819D02*
X181521905Y-102839819D01*
X181521905Y-102839819D02*
X181902857Y-102839819D01*
X181902857Y-102839819D02*
X181998095Y-102887438D01*
X181998095Y-102887438D02*
X182045714Y-102935057D01*
X182045714Y-102935057D02*
X182093333Y-103030295D01*
X182093333Y-103030295D02*
X182093333Y-103173152D01*
X182093333Y-103173152D02*
X182045714Y-103268390D01*
X182045714Y-103268390D02*
X181998095Y-103316009D01*
X181998095Y-103316009D02*
X181902857Y-103363628D01*
X181902857Y-103363628D02*
X181521905Y-103363628D01*
X183045714Y-103839819D02*
X182474286Y-103839819D01*
X182760000Y-103839819D02*
X182760000Y-102839819D01*
X182760000Y-102839819D02*
X182664762Y-102982676D01*
X182664762Y-102982676D02*
X182569524Y-103077914D01*
X182569524Y-103077914D02*
X182474286Y-103125533D01*
X175814819Y-108996904D02*
X176624342Y-108996904D01*
X176624342Y-108996904D02*
X176719580Y-108949285D01*
X176719580Y-108949285D02*
X176767200Y-108901666D01*
X176767200Y-108901666D02*
X176814819Y-108806428D01*
X176814819Y-108806428D02*
X176814819Y-108615952D01*
X176814819Y-108615952D02*
X176767200Y-108520714D01*
X176767200Y-108520714D02*
X176719580Y-108473095D01*
X176719580Y-108473095D02*
X176624342Y-108425476D01*
X176624342Y-108425476D02*
X175814819Y-108425476D01*
X175814819Y-108044523D02*
X175814819Y-107425476D01*
X175814819Y-107425476D02*
X176195771Y-107758809D01*
X176195771Y-107758809D02*
X176195771Y-107615952D01*
X176195771Y-107615952D02*
X176243390Y-107520714D01*
X176243390Y-107520714D02*
X176291009Y-107473095D01*
X176291009Y-107473095D02*
X176386247Y-107425476D01*
X176386247Y-107425476D02*
X176624342Y-107425476D01*
X176624342Y-107425476D02*
X176719580Y-107473095D01*
X176719580Y-107473095D02*
X176767200Y-107520714D01*
X176767200Y-107520714D02*
X176814819Y-107615952D01*
X176814819Y-107615952D02*
X176814819Y-107901666D01*
X176814819Y-107901666D02*
X176767200Y-107996904D01*
X176767200Y-107996904D02*
X176719580Y-108044523D01*
X144964819Y-101080238D02*
X144488628Y-101413571D01*
X144964819Y-101651666D02*
X143964819Y-101651666D01*
X143964819Y-101651666D02*
X143964819Y-101270714D01*
X143964819Y-101270714D02*
X144012438Y-101175476D01*
X144012438Y-101175476D02*
X144060057Y-101127857D01*
X144060057Y-101127857D02*
X144155295Y-101080238D01*
X144155295Y-101080238D02*
X144298152Y-101080238D01*
X144298152Y-101080238D02*
X144393390Y-101127857D01*
X144393390Y-101127857D02*
X144441009Y-101175476D01*
X144441009Y-101175476D02*
X144488628Y-101270714D01*
X144488628Y-101270714D02*
X144488628Y-101651666D01*
X143964819Y-100794523D02*
X144964819Y-100461190D01*
X144964819Y-100461190D02*
X143964819Y-100127857D01*
X144964819Y-99270714D02*
X144964819Y-99842142D01*
X144964819Y-99556428D02*
X143964819Y-99556428D01*
X143964819Y-99556428D02*
X144107676Y-99651666D01*
X144107676Y-99651666D02*
X144202914Y-99746904D01*
X144202914Y-99746904D02*
X144250533Y-99842142D01*
X185093333Y-95189819D02*
X184760000Y-94713628D01*
X184521905Y-95189819D02*
X184521905Y-94189819D01*
X184521905Y-94189819D02*
X184902857Y-94189819D01*
X184902857Y-94189819D02*
X184998095Y-94237438D01*
X184998095Y-94237438D02*
X185045714Y-94285057D01*
X185045714Y-94285057D02*
X185093333Y-94380295D01*
X185093333Y-94380295D02*
X185093333Y-94523152D01*
X185093333Y-94523152D02*
X185045714Y-94618390D01*
X185045714Y-94618390D02*
X184998095Y-94666009D01*
X184998095Y-94666009D02*
X184902857Y-94713628D01*
X184902857Y-94713628D02*
X184521905Y-94713628D01*
X185474286Y-94285057D02*
X185521905Y-94237438D01*
X185521905Y-94237438D02*
X185617143Y-94189819D01*
X185617143Y-94189819D02*
X185855238Y-94189819D01*
X185855238Y-94189819D02*
X185950476Y-94237438D01*
X185950476Y-94237438D02*
X185998095Y-94285057D01*
X185998095Y-94285057D02*
X186045714Y-94380295D01*
X186045714Y-94380295D02*
X186045714Y-94475533D01*
X186045714Y-94475533D02*
X185998095Y-94618390D01*
X185998095Y-94618390D02*
X185426667Y-95189819D01*
X185426667Y-95189819D02*
X186045714Y-95189819D01*
X175164761Y-94847557D02*
X175069523Y-94799938D01*
X175069523Y-94799938D02*
X174974285Y-94704700D01*
X174974285Y-94704700D02*
X174831428Y-94561842D01*
X174831428Y-94561842D02*
X174736190Y-94514223D01*
X174736190Y-94514223D02*
X174640952Y-94514223D01*
X174688571Y-94752319D02*
X174593333Y-94704700D01*
X174593333Y-94704700D02*
X174498095Y-94609461D01*
X174498095Y-94609461D02*
X174450476Y-94418985D01*
X174450476Y-94418985D02*
X174450476Y-94085652D01*
X174450476Y-94085652D02*
X174498095Y-93895176D01*
X174498095Y-93895176D02*
X174593333Y-93799938D01*
X174593333Y-93799938D02*
X174688571Y-93752319D01*
X174688571Y-93752319D02*
X174879047Y-93752319D01*
X174879047Y-93752319D02*
X174974285Y-93799938D01*
X174974285Y-93799938D02*
X175069523Y-93895176D01*
X175069523Y-93895176D02*
X175117142Y-94085652D01*
X175117142Y-94085652D02*
X175117142Y-94418985D01*
X175117142Y-94418985D02*
X175069523Y-94609461D01*
X175069523Y-94609461D02*
X174974285Y-94704700D01*
X174974285Y-94704700D02*
X174879047Y-94752319D01*
X174879047Y-94752319D02*
X174688571Y-94752319D01*
X176069523Y-94752319D02*
X175498095Y-94752319D01*
X175783809Y-94752319D02*
X175783809Y-93752319D01*
X175783809Y-93752319D02*
X175688571Y-93895176D01*
X175688571Y-93895176D02*
X175593333Y-93990414D01*
X175593333Y-93990414D02*
X175498095Y-94038033D01*
X139714819Y-104401666D02*
X139238628Y-104734999D01*
X139714819Y-104973094D02*
X138714819Y-104973094D01*
X138714819Y-104973094D02*
X138714819Y-104592142D01*
X138714819Y-104592142D02*
X138762438Y-104496904D01*
X138762438Y-104496904D02*
X138810057Y-104449285D01*
X138810057Y-104449285D02*
X138905295Y-104401666D01*
X138905295Y-104401666D02*
X139048152Y-104401666D01*
X139048152Y-104401666D02*
X139143390Y-104449285D01*
X139143390Y-104449285D02*
X139191009Y-104496904D01*
X139191009Y-104496904D02*
X139238628Y-104592142D01*
X139238628Y-104592142D02*
X139238628Y-104973094D01*
X138714819Y-104068332D02*
X138714819Y-103449285D01*
X138714819Y-103449285D02*
X139095771Y-103782618D01*
X139095771Y-103782618D02*
X139095771Y-103639761D01*
X139095771Y-103639761D02*
X139143390Y-103544523D01*
X139143390Y-103544523D02*
X139191009Y-103496904D01*
X139191009Y-103496904D02*
X139286247Y-103449285D01*
X139286247Y-103449285D02*
X139524342Y-103449285D01*
X139524342Y-103449285D02*
X139619580Y-103496904D01*
X139619580Y-103496904D02*
X139667200Y-103544523D01*
X139667200Y-103544523D02*
X139714819Y-103639761D01*
X139714819Y-103639761D02*
X139714819Y-103925475D01*
X139714819Y-103925475D02*
X139667200Y-104020713D01*
X139667200Y-104020713D02*
X139619580Y-104068332D01*
X176676666Y-65059819D02*
X176676666Y-65774104D01*
X176676666Y-65774104D02*
X176629047Y-65916961D01*
X176629047Y-65916961D02*
X176533809Y-66012200D01*
X176533809Y-66012200D02*
X176390952Y-66059819D01*
X176390952Y-66059819D02*
X176295714Y-66059819D01*
X177629047Y-65059819D02*
X177152857Y-65059819D01*
X177152857Y-65059819D02*
X177105238Y-65536009D01*
X177105238Y-65536009D02*
X177152857Y-65488390D01*
X177152857Y-65488390D02*
X177248095Y-65440771D01*
X177248095Y-65440771D02*
X177486190Y-65440771D01*
X177486190Y-65440771D02*
X177581428Y-65488390D01*
X177581428Y-65488390D02*
X177629047Y-65536009D01*
X177629047Y-65536009D02*
X177676666Y-65631247D01*
X177676666Y-65631247D02*
X177676666Y-65869342D01*
X177676666Y-65869342D02*
X177629047Y-65964580D01*
X177629047Y-65964580D02*
X177581428Y-66012200D01*
X177581428Y-66012200D02*
X177486190Y-66059819D01*
X177486190Y-66059819D02*
X177248095Y-66059819D01*
X177248095Y-66059819D02*
X177152857Y-66012200D01*
X177152857Y-66012200D02*
X177105238Y-65964580D01*
X184521905Y-98689819D02*
X184521905Y-97689819D01*
X184521905Y-97689819D02*
X184760000Y-97689819D01*
X184760000Y-97689819D02*
X184902857Y-97737438D01*
X184902857Y-97737438D02*
X184998095Y-97832676D01*
X184998095Y-97832676D02*
X185045714Y-97927914D01*
X185045714Y-97927914D02*
X185093333Y-98118390D01*
X185093333Y-98118390D02*
X185093333Y-98261247D01*
X185093333Y-98261247D02*
X185045714Y-98451723D01*
X185045714Y-98451723D02*
X184998095Y-98546961D01*
X184998095Y-98546961D02*
X184902857Y-98642200D01*
X184902857Y-98642200D02*
X184760000Y-98689819D01*
X184760000Y-98689819D02*
X184521905Y-98689819D01*
X185474286Y-97785057D02*
X185521905Y-97737438D01*
X185521905Y-97737438D02*
X185617143Y-97689819D01*
X185617143Y-97689819D02*
X185855238Y-97689819D01*
X185855238Y-97689819D02*
X185950476Y-97737438D01*
X185950476Y-97737438D02*
X185998095Y-97785057D01*
X185998095Y-97785057D02*
X186045714Y-97880295D01*
X186045714Y-97880295D02*
X186045714Y-97975533D01*
X186045714Y-97975533D02*
X185998095Y-98118390D01*
X185998095Y-98118390D02*
X185426667Y-98689819D01*
X185426667Y-98689819D02*
X186045714Y-98689819D01*
X150119580Y-103901666D02*
X150167200Y-103949285D01*
X150167200Y-103949285D02*
X150214819Y-104092142D01*
X150214819Y-104092142D02*
X150214819Y-104187380D01*
X150214819Y-104187380D02*
X150167200Y-104330237D01*
X150167200Y-104330237D02*
X150071961Y-104425475D01*
X150071961Y-104425475D02*
X149976723Y-104473094D01*
X149976723Y-104473094D02*
X149786247Y-104520713D01*
X149786247Y-104520713D02*
X149643390Y-104520713D01*
X149643390Y-104520713D02*
X149452914Y-104473094D01*
X149452914Y-104473094D02*
X149357676Y-104425475D01*
X149357676Y-104425475D02*
X149262438Y-104330237D01*
X149262438Y-104330237D02*
X149214819Y-104187380D01*
X149214819Y-104187380D02*
X149214819Y-104092142D01*
X149214819Y-104092142D02*
X149262438Y-103949285D01*
X149262438Y-103949285D02*
X149310057Y-103901666D01*
X149310057Y-103520713D02*
X149262438Y-103473094D01*
X149262438Y-103473094D02*
X149214819Y-103377856D01*
X149214819Y-103377856D02*
X149214819Y-103139761D01*
X149214819Y-103139761D02*
X149262438Y-103044523D01*
X149262438Y-103044523D02*
X149310057Y-102996904D01*
X149310057Y-102996904D02*
X149405295Y-102949285D01*
X149405295Y-102949285D02*
X149500533Y-102949285D01*
X149500533Y-102949285D02*
X149643390Y-102996904D01*
X149643390Y-102996904D02*
X150214819Y-103568332D01*
X150214819Y-103568332D02*
X150214819Y-102949285D01*
X168771905Y-95189819D02*
X168771905Y-94189819D01*
X168771905Y-94189819D02*
X169010000Y-94189819D01*
X169010000Y-94189819D02*
X169152857Y-94237438D01*
X169152857Y-94237438D02*
X169248095Y-94332676D01*
X169248095Y-94332676D02*
X169295714Y-94427914D01*
X169295714Y-94427914D02*
X169343333Y-94618390D01*
X169343333Y-94618390D02*
X169343333Y-94761247D01*
X169343333Y-94761247D02*
X169295714Y-94951723D01*
X169295714Y-94951723D02*
X169248095Y-95046961D01*
X169248095Y-95046961D02*
X169152857Y-95142200D01*
X169152857Y-95142200D02*
X169010000Y-95189819D01*
X169010000Y-95189819D02*
X168771905Y-95189819D01*
X170295714Y-95189819D02*
X169724286Y-95189819D01*
X170010000Y-95189819D02*
X170010000Y-94189819D01*
X170010000Y-94189819D02*
X169914762Y-94332676D01*
X169914762Y-94332676D02*
X169819524Y-94427914D01*
X169819524Y-94427914D02*
X169724286Y-94475533D01*
X158093333Y-107594580D02*
X158045714Y-107642200D01*
X158045714Y-107642200D02*
X157902857Y-107689819D01*
X157902857Y-107689819D02*
X157807619Y-107689819D01*
X157807619Y-107689819D02*
X157664762Y-107642200D01*
X157664762Y-107642200D02*
X157569524Y-107546961D01*
X157569524Y-107546961D02*
X157521905Y-107451723D01*
X157521905Y-107451723D02*
X157474286Y-107261247D01*
X157474286Y-107261247D02*
X157474286Y-107118390D01*
X157474286Y-107118390D02*
X157521905Y-106927914D01*
X157521905Y-106927914D02*
X157569524Y-106832676D01*
X157569524Y-106832676D02*
X157664762Y-106737438D01*
X157664762Y-106737438D02*
X157807619Y-106689819D01*
X157807619Y-106689819D02*
X157902857Y-106689819D01*
X157902857Y-106689819D02*
X158045714Y-106737438D01*
X158045714Y-106737438D02*
X158093333Y-106785057D01*
X159045714Y-107689819D02*
X158474286Y-107689819D01*
X158760000Y-107689819D02*
X158760000Y-106689819D01*
X158760000Y-106689819D02*
X158664762Y-106832676D01*
X158664762Y-106832676D02*
X158569524Y-106927914D01*
X158569524Y-106927914D02*
X158474286Y-106975533D01*
X174093333Y-100594580D02*
X174045714Y-100642200D01*
X174045714Y-100642200D02*
X173902857Y-100689819D01*
X173902857Y-100689819D02*
X173807619Y-100689819D01*
X173807619Y-100689819D02*
X173664762Y-100642200D01*
X173664762Y-100642200D02*
X173569524Y-100546961D01*
X173569524Y-100546961D02*
X173521905Y-100451723D01*
X173521905Y-100451723D02*
X173474286Y-100261247D01*
X173474286Y-100261247D02*
X173474286Y-100118390D01*
X173474286Y-100118390D02*
X173521905Y-99927914D01*
X173521905Y-99927914D02*
X173569524Y-99832676D01*
X173569524Y-99832676D02*
X173664762Y-99737438D01*
X173664762Y-99737438D02*
X173807619Y-99689819D01*
X173807619Y-99689819D02*
X173902857Y-99689819D01*
X173902857Y-99689819D02*
X174045714Y-99737438D01*
X174045714Y-99737438D02*
X174093333Y-99785057D01*
X174426667Y-99689819D02*
X175045714Y-99689819D01*
X175045714Y-99689819D02*
X174712381Y-100070771D01*
X174712381Y-100070771D02*
X174855238Y-100070771D01*
X174855238Y-100070771D02*
X174950476Y-100118390D01*
X174950476Y-100118390D02*
X174998095Y-100166009D01*
X174998095Y-100166009D02*
X175045714Y-100261247D01*
X175045714Y-100261247D02*
X175045714Y-100499342D01*
X175045714Y-100499342D02*
X174998095Y-100594580D01*
X174998095Y-100594580D02*
X174950476Y-100642200D01*
X174950476Y-100642200D02*
X174855238Y-100689819D01*
X174855238Y-100689819D02*
X174569524Y-100689819D01*
X174569524Y-100689819D02*
X174474286Y-100642200D01*
X174474286Y-100642200D02*
X174426667Y-100594580D01*
D12*
%TO.C,F1*%
X131500000Y-57415000D02*
X133685000Y-57415000D01*
X128000000Y-57415000D02*
X125815000Y-57415000D01*
X125815000Y-57415000D02*
X125815000Y-64525000D01*
X133685000Y-64525000D02*
X133685000Y-57415000D01*
X133685000Y-64525000D02*
X131500000Y-64525000D01*
X132925000Y-64525000D02*
X132925000Y-84005000D01*
X126575000Y-64525000D02*
X126575000Y-84005000D01*
X125815000Y-64525000D02*
X128000000Y-64525000D01*
X133685000Y-84005000D02*
X131500000Y-84005000D01*
X133685000Y-84005000D02*
X133685000Y-91070000D01*
X125815000Y-84005000D02*
X128000000Y-84005000D01*
X125815000Y-84005000D02*
X125815000Y-91070000D01*
X133685000Y-91070000D02*
X131500000Y-91070000D01*
X125815000Y-91070000D02*
X128000000Y-91070000D01*
%TO.C,R1*%
X182487064Y-101000000D02*
X182032936Y-101000000D01*
X182487064Y-102470000D02*
X182032936Y-102470000D01*
%TO.C,VCC1*%
X180660000Y-75285000D02*
X180660000Y-77185000D01*
X178760000Y-75285000D02*
X180660000Y-75285000D01*
X180660000Y-77185000D02*
X178760000Y-77185000D01*
X178760000Y-77185000D02*
X178760000Y-75285000D01*
%TO.C,RESET1*%
X180660000Y-70785000D02*
X180660000Y-72685000D01*
X178760000Y-70785000D02*
X180660000Y-70785000D01*
X180660000Y-72685000D02*
X178760000Y-72685000D01*
X178760000Y-72685000D02*
X178760000Y-70785000D01*
%TO.C,MISO1*%
X180660000Y-66285000D02*
X180660000Y-68185000D01*
X178760000Y-66285000D02*
X180660000Y-66285000D01*
X180660000Y-68185000D02*
X178760000Y-68185000D01*
X178760000Y-68185000D02*
X178760000Y-66285000D01*
%TO.C,RN1*%
X164910000Y-116925000D02*
X164910000Y-119545000D01*
X162290000Y-116925000D02*
X175150000Y-116925000D01*
X175150000Y-119545000D01*
X162290000Y-119545000D01*
X162290000Y-116925000D01*
%TO.C,U3*%
X175520000Y-104375000D02*
X175520000Y-112095000D01*
X175265000Y-104375000D02*
X175520000Y-104375000D01*
X165000000Y-104375000D02*
X165255000Y-104375000D01*
X175520000Y-112095000D02*
X175265000Y-112095000D01*
X165255000Y-112095000D02*
X165000000Y-112095000D01*
X165000000Y-112095000D02*
X165000000Y-104375000D01*
X175740000Y-103925000D02*
X175270000Y-103585000D01*
X175740000Y-103245000D01*
X175740000Y-103925000D01*
G36*
X175740000Y-103925000D02*
G01*
X175270000Y-103585000D01*
X175740000Y-103245000D01*
X175740000Y-103925000D01*
G37*
%TO.C,GND1*%
X185210000Y-66285000D02*
X185210000Y-68185000D01*
X183310000Y-66285000D02*
X185210000Y-66285000D01*
X185210000Y-68185000D02*
X183310000Y-68185000D01*
X183310000Y-68185000D02*
X183310000Y-66285000D01*
%TO.C,J3*%
X170380000Y-56565000D02*
X170380000Y-64605000D01*
X167560000Y-56565000D02*
X170380000Y-56565000D01*
X159640000Y-56565000D02*
X166960000Y-56565000D01*
X170380000Y-58685000D02*
X169140000Y-58685000D01*
X165380000Y-58685000D02*
X162803000Y-58685000D01*
X161717000Y-58685000D02*
X159640000Y-58685000D01*
X170380000Y-59985000D02*
X169140000Y-59985000D01*
X165380000Y-59985000D02*
X164072000Y-59985000D01*
X160448000Y-59985000D02*
X159640000Y-59985000D01*
X170380000Y-60985000D02*
X169140000Y-60985000D01*
X165380000Y-60985000D02*
X164072000Y-60985000D01*
X160448000Y-60985000D02*
X159640000Y-60985000D01*
X170380000Y-64605000D02*
X159640000Y-64605000D01*
X159640000Y-64605000D02*
X159640000Y-56565000D01*
X167260000Y-56565000D02*
X166820000Y-55955000D01*
X167700000Y-55955000D01*
X167260000Y-56565000D01*
G36*
X167260000Y-56565000D02*
G01*
X166820000Y-55955000D01*
X167700000Y-55955000D01*
X167260000Y-56565000D01*
G37*
D11*
%TO.C,RV1*%
X148260000Y-92735000D02*
X140760000Y-92735000D01*
X148260000Y-92735000D02*
X148260000Y-108235000D01*
X140760000Y-92735000D02*
X140760000Y-108235000D01*
X148260000Y-108235000D02*
X140760000Y-108235000D01*
D12*
%TO.C,PS1*%
X158120000Y-53185000D02*
X158120000Y-90205000D01*
X149556000Y-53185000D02*
X158120000Y-53185000D01*
X135400000Y-53185000D02*
X148964000Y-53185000D01*
X158120000Y-90205000D02*
X135400000Y-90205000D01*
X135400000Y-90205000D02*
X135400000Y-53185000D01*
X149260000Y-53185000D02*
X148820000Y-52575000D01*
X149700000Y-52575000D01*
X149260000Y-53185000D01*
G36*
X149260000Y-53185000D02*
G01*
X148820000Y-52575000D01*
X149700000Y-52575000D01*
X149260000Y-53185000D01*
G37*
%TO.C,R2*%
X182487064Y-94000000D02*
X182032936Y-94000000D01*
X182487064Y-95470000D02*
X182032936Y-95470000D01*
%TO.C,Q1*%
X173770000Y-93537500D02*
X173770000Y-95057500D01*
X172770000Y-93537500D02*
X173770000Y-93537500D01*
X170650000Y-93537500D02*
X171650000Y-93537500D01*
X173770000Y-95057500D02*
X173720000Y-95057500D01*
X172600000Y-95057500D02*
X171820000Y-95057500D01*
X170700000Y-95057500D02*
X170650000Y-95057500D01*
X170650000Y-95057500D02*
X170650000Y-93537500D01*
X172160000Y-95837500D02*
X171830000Y-95597500D01*
X172160000Y-95357500D01*
X172160000Y-95837500D01*
G36*
X172160000Y-95837500D02*
G01*
X171830000Y-95597500D01*
X172160000Y-95357500D01*
X172160000Y-95837500D01*
G37*
%TO.C,U1*%
X185020000Y-82475000D02*
X185020000Y-87995000D01*
X184750000Y-82475000D02*
X185020000Y-82475000D01*
X179500000Y-82475000D02*
X179770000Y-82475000D01*
X185020000Y-87995000D02*
X184750000Y-87995000D01*
X179770000Y-87995000D02*
X179500000Y-87995000D01*
X179500000Y-87995000D02*
X179500000Y-82475000D01*
X185230000Y-81985000D02*
X184760000Y-81645000D01*
X185230000Y-81305000D01*
X185230000Y-81985000D01*
G36*
X185230000Y-81985000D02*
G01*
X184760000Y-81645000D01*
X185230000Y-81305000D01*
X185230000Y-81985000D01*
G37*
%TO.C,R3*%
X139995000Y-101007936D02*
X139995000Y-101462064D01*
X138525000Y-101007936D02*
X138525000Y-101462064D01*
%TO.C,J4*%
X137670000Y-95657500D02*
X137670000Y-97077500D01*
X125950000Y-95657500D02*
X137670000Y-95657500D01*
X137670000Y-97077500D02*
X133170000Y-97077500D01*
X133170000Y-97077500D02*
X133170000Y-100717500D01*
X137360000Y-97917500D02*
X137360000Y-98517500D01*
X136760000Y-98217500D02*
X137360000Y-97917500D01*
X137360000Y-98517500D02*
X136760000Y-98217500D01*
X125950000Y-100717500D02*
X125950000Y-95657500D01*
X125950000Y-100717500D02*
X125950000Y-105777500D01*
X137670000Y-104357500D02*
X133170000Y-104357500D01*
X133170000Y-104357500D02*
X133170000Y-100717500D01*
X137670000Y-105777500D02*
X137670000Y-104357500D01*
X125950000Y-105777500D02*
X137670000Y-105777500D01*
X132060000Y-97967500D02*
X126560000Y-97967500D01*
X126560000Y-98467500D01*
X132060000Y-98467500D01*
X132060000Y-97967500D01*
X132060000Y-100467500D02*
X126560000Y-100467500D01*
X126560000Y-100967500D01*
X132060000Y-100967500D01*
X132060000Y-100467500D01*
X132060000Y-102967500D02*
X126560000Y-102967500D01*
X126560000Y-103467500D01*
X132060000Y-103467500D01*
X132060000Y-102967500D01*
D13*
%TO.C,K1*%
X175510000Y-70370000D02*
X175510000Y-89470000D01*
X160010000Y-70370000D02*
X175510000Y-70370000D01*
X175510000Y-89470000D02*
X160010000Y-89470000D01*
X160010000Y-89470000D02*
X160010000Y-70370000D01*
D14*
X161741000Y-90120000D02*
G75*
G02*
X161541000Y-90120000I-100000J0D01*
G01*
X161541000Y-90120000D02*
G75*
G02*
X161741000Y-90120000I100000J0D01*
G01*
D12*
%TO.C,SW1*%
X182260000Y-109985000D02*
X180760000Y-109985000D01*
X178260000Y-111235000D02*
X178260000Y-115735000D01*
X184760000Y-115735000D02*
X184760000Y-111235000D01*
X180760000Y-116985000D02*
X182260000Y-116985000D01*
%TO.C,SCK1*%
X185210000Y-75285000D02*
X185210000Y-77185000D01*
X183310000Y-75285000D02*
X185210000Y-75285000D01*
X185210000Y-77185000D02*
X183310000Y-77185000D01*
X183310000Y-77185000D02*
X183310000Y-75285000D01*
%TO.C,J1*%
X128690000Y-108785000D02*
X128690000Y-110115000D01*
X127360000Y-108785000D02*
X128690000Y-108785000D01*
X128690000Y-111385000D02*
X128690000Y-119065000D01*
X126030000Y-111385000D02*
X128690000Y-111385000D01*
X126030000Y-111385000D02*
X126030000Y-119065000D01*
X126030000Y-119065000D02*
X128690000Y-119065000D01*
%TO.C,MOSI1*%
X185210000Y-70785000D02*
X185210000Y-72685000D01*
X183310000Y-70785000D02*
X185210000Y-70785000D01*
X185210000Y-72685000D02*
X183310000Y-72685000D01*
X183310000Y-72685000D02*
X183310000Y-70785000D01*
%TO.C,J5*%
X182380000Y-56565000D02*
X182380000Y-64605000D01*
X179560000Y-56565000D02*
X182380000Y-56565000D01*
X171640000Y-56565000D02*
X178960000Y-56565000D01*
X182380000Y-58685000D02*
X181140000Y-58685000D01*
X177380000Y-58685000D02*
X174803000Y-58685000D01*
X173717000Y-58685000D02*
X171640000Y-58685000D01*
X182380000Y-59985000D02*
X181140000Y-59985000D01*
X177380000Y-59985000D02*
X176072000Y-59985000D01*
X172448000Y-59985000D02*
X171640000Y-59985000D01*
X182380000Y-60985000D02*
X181140000Y-60985000D01*
X177380000Y-60985000D02*
X176072000Y-60985000D01*
X172448000Y-60985000D02*
X171640000Y-60985000D01*
X182380000Y-64605000D02*
X171640000Y-64605000D01*
X171640000Y-64605000D02*
X171640000Y-56565000D01*
X179260000Y-56565000D02*
X178820000Y-55955000D01*
X179700000Y-55955000D01*
X179260000Y-56565000D01*
G36*
X179260000Y-56565000D02*
G01*
X178820000Y-55955000D01*
X179700000Y-55955000D01*
X179260000Y-56565000D01*
G37*
%TO.C,D2*%
X184145000Y-97275000D02*
X181285000Y-97275000D01*
X184145000Y-99195000D02*
X184145000Y-97275000D01*
X181285000Y-99195000D02*
X184145000Y-99195000D01*
%TO.C,U2*%
X160910000Y-98565000D02*
X154490000Y-98565000D01*
X154490000Y-98565000D02*
X154490000Y-98835000D01*
X160910000Y-105465000D02*
X154490000Y-105465000D01*
X154490000Y-105465000D02*
X154490000Y-105195000D01*
X152760000Y-98875000D02*
X152420000Y-98405000D01*
X153100000Y-98405000D01*
X152760000Y-98875000D01*
G36*
X152760000Y-98875000D02*
G01*
X152420000Y-98405000D01*
X153100000Y-98405000D01*
X152760000Y-98875000D01*
G37*
%TO.C,C2*%
X148955000Y-99712500D02*
X148955000Y-102607500D01*
X150565000Y-102607500D02*
X150565000Y-99712500D01*
X148955000Y-102607500D02*
X150565000Y-102607500D01*
%TO.C,D1*%
X168270000Y-93085000D02*
X162760000Y-93085000D01*
X168270000Y-96385000D02*
X168270000Y-93085000D01*
X168270000Y-96385000D02*
X162760000Y-96385000D01*
%TO.C,C1*%
X156282500Y-106430000D02*
X153387500Y-106430000D01*
X153387500Y-106430000D02*
X153387500Y-108040000D01*
X153387500Y-108040000D02*
X156282500Y-108040000D01*
%TO.C,C3*%
X171558752Y-99500000D02*
X171036248Y-99500000D01*
X171558752Y-100970000D02*
X171036248Y-100970000D01*
%TD*%
M02*
