%TF.GenerationSoftware,KiCad,Pcbnew,9.0.7-9.0.7~ubuntu22.04.1*%
%TF.CreationDate,2026-01-30T05:50:44+05:30*%
%TF.ProjectId,SOLDERING_IRON_CONTROLLER,534f4c44-4552-4494-9e47-5f49524f4e5f,rev?*%
%TF.SameCoordinates,Original*%
%TF.FileFunction,Soldermask,Top*%
%TF.FilePolarity,Negative*%
%FSLAX46Y46*%
G04 Gerber Fmt 4.6, Leading zero omitted, Abs format (unit mm)*
G04 Created by KiCad (PCBNEW 9.0.7-9.0.7~ubuntu22.04.1) date 2026-01-30 05:50:44*
%MOMM*%
%LPD*%
G01*
G04 APERTURE LIST*
G04 Aperture macros list*
%AMRoundRect*
0 Rectangle with rounded corners*
0 $1 Rounding radius*
0 $2 $3 $4 $5 $6 $7 $8 $9 X,Y pos of 4 corners*
0 Add a 4 corners polygon primitive as box body*
4,1,4,$2,$3,$4,$5,$6,$7,$8,$9,$2,$3,0*
0 Add four circle primitives for the rounded corners*
1,1,$1+$1,$2,$3*
1,1,$1+$1,$4,$5*
1,1,$1+$1,$6,$7*
1,1,$1+$1,$8,$9*
0 Add four rect primitives between the rounded corners*
20,1,$1+$1,$2,$3,$4,$5,0*
20,1,$1+$1,$4,$5,$6,$7,0*
20,1,$1+$1,$6,$7,$8,$9,0*
20,1,$1+$1,$8,$9,$2,$3,0*%
G04 Aperture macros list end*
%ADD10RoundRect,0.750000X0.750000X-0.750000X0.750000X0.750000X-0.750000X0.750000X-0.750000X-0.750000X0*%
%ADD11C,3.000000*%
%ADD12RoundRect,0.250000X0.350000X0.450000X-0.350000X0.450000X-0.350000X-0.450000X0.350000X-0.450000X0*%
%ADD13C,0.800000*%
%ADD14C,7.000000*%
%ADD15R,1.500000X1.500000*%
%ADD16R,1.600000X1.600000*%
%ADD17C,1.600000*%
%ADD18RoundRect,0.150000X-0.150000X0.875000X-0.150000X-0.875000X0.150000X-0.875000X0.150000X0.875000X0*%
%ADD19RoundRect,0.250001X1.149999X1.149999X-1.149999X1.149999X-1.149999X-1.149999X1.149999X-1.149999X0*%
%ADD20C,2.800000*%
%ADD21C,1.800000*%
%ADD22RoundRect,0.250000X-0.750000X0.600000X-0.750000X-0.600000X0.750000X-0.600000X0.750000X0.600000X0*%
%ADD23O,2.000000X1.700000*%
%ADD24RoundRect,0.150000X0.150000X-0.587500X0.150000X0.587500X-0.150000X0.587500X-0.150000X-0.587500X0*%
%ADD25RoundRect,0.162500X-0.162500X0.650000X-0.162500X-0.650000X0.162500X-0.650000X0.162500X0.650000X0*%
%ADD26RoundRect,0.250000X-0.450000X0.350000X-0.450000X-0.350000X0.450000X-0.350000X0.450000X0.350000X0*%
%ADD27RoundRect,0.250000X-0.725000X0.600000X-0.725000X-0.600000X0.725000X-0.600000X0.725000X0.600000X0*%
%ADD28O,1.950000X1.700000*%
%ADD29RoundRect,0.102000X0.990000X-0.990000X0.990000X0.990000X-0.990000X0.990000X-0.990000X-0.990000X0*%
%ADD30C,2.184000*%
%ADD31C,2.139000*%
%ADD32C,2.000000*%
%ADD33R,1.700000X1.700000*%
%ADD34C,1.700000*%
%ADD35RoundRect,0.250000X0.325000X0.450000X-0.325000X0.450000X-0.325000X-0.450000X0.325000X-0.450000X0*%
%ADD36RoundRect,0.250000X-0.850000X-0.350000X0.850000X-0.350000X0.850000X0.350000X-0.850000X0.350000X0*%
%ADD37RoundRect,0.249997X-2.950003X-2.650003X2.950003X-2.650003X2.950003X2.650003X-2.950003X2.650003X0*%
%ADD38RoundRect,0.250000X0.295000X-0.407500X0.295000X0.407500X-0.295000X0.407500X-0.295000X-0.407500X0*%
%ADD39RoundRect,0.250000X1.000000X0.650000X-1.000000X0.650000X-1.000000X-0.650000X1.000000X-0.650000X0*%
%ADD40RoundRect,0.250000X-0.407500X-0.295000X0.407500X-0.295000X0.407500X0.295000X-0.407500X0.295000X0*%
%ADD41RoundRect,0.250000X0.337500X0.475000X-0.337500X0.475000X-0.337500X-0.475000X0.337500X-0.475000X0*%
G04 APERTURE END LIST*
D10*
%TO.C,F1*%
X129750000Y-91370000D03*
X129750000Y-83750000D03*
D11*
X129750000Y-64780000D03*
X129750000Y-57160000D03*
%TD*%
D12*
%TO.C,R1*%
X183260000Y-101735000D03*
X181260000Y-101735000D03*
%TD*%
D13*
%TO.C,H3*%
X183010000Y-120735000D03*
X184866155Y-121503845D03*
X181153845Y-121503845D03*
X185635000Y-123360000D03*
D14*
X183010000Y-123360000D03*
D13*
X180385000Y-123360000D03*
X184866155Y-125216155D03*
X181153845Y-125216155D03*
X183010000Y-125985000D03*
%TD*%
D15*
%TO.C,VCC1*%
X179710000Y-76235000D03*
%TD*%
%TO.C,RESET1*%
X179710000Y-71735000D03*
%TD*%
%TO.C,MISO1*%
X179710000Y-67235000D03*
%TD*%
D16*
%TO.C,RN1*%
X163640000Y-118235000D03*
D17*
X166180000Y-118235000D03*
X168720000Y-118235000D03*
X171260000Y-118235000D03*
X173800000Y-118235000D03*
%TD*%
D18*
%TO.C,U3*%
X174705000Y-103585000D03*
X173435000Y-103585000D03*
X172165000Y-103585000D03*
X170895000Y-103585000D03*
X169625000Y-103585000D03*
X168355000Y-103585000D03*
X167085000Y-103585000D03*
X165815000Y-103585000D03*
X165815000Y-112885000D03*
X167085000Y-112885000D03*
X168355000Y-112885000D03*
X169625000Y-112885000D03*
X170895000Y-112885000D03*
X172165000Y-112885000D03*
X173435000Y-112885000D03*
X174705000Y-112885000D03*
%TD*%
D15*
%TO.C,GND1*%
X184260000Y-67235000D03*
%TD*%
D19*
%TO.C,J3*%
X167260000Y-60485000D03*
D20*
X162260000Y-60485000D03*
%TD*%
D21*
%TO.C,RV1*%
X146510000Y-96735000D03*
X142510000Y-104235000D03*
%TD*%
D22*
%TO.C,PS1*%
X149260000Y-57155000D03*
D23*
X144260000Y-57155000D03*
X154260000Y-86235000D03*
X139260000Y-86235000D03*
%TD*%
D12*
%TO.C,R2*%
X183260000Y-94735000D03*
X181260000Y-94735000D03*
%TD*%
D24*
%TO.C,Q1*%
X171260000Y-95235000D03*
X173160000Y-95235000D03*
X172210000Y-93360000D03*
%TD*%
D25*
%TO.C,U1*%
X184165000Y-81647500D03*
X182895000Y-81647500D03*
X181625000Y-81647500D03*
X180355000Y-81647500D03*
X180355000Y-88822500D03*
X181625000Y-88822500D03*
X182895000Y-88822500D03*
X184165000Y-88822500D03*
%TD*%
D26*
%TO.C,R3*%
X139260000Y-100235000D03*
X139260000Y-102235000D03*
%TD*%
D27*
%TO.C,J4*%
X135260000Y-98217500D03*
D28*
X135260000Y-100717500D03*
X135260000Y-103217500D03*
%TD*%
D29*
%TO.C,K1*%
X161760000Y-86020000D03*
D30*
X173760000Y-86020000D03*
D31*
X167760000Y-88020000D03*
D30*
X161760000Y-73820000D03*
X173760000Y-73820000D03*
%TD*%
D32*
%TO.C,SW1*%
X183760000Y-110235000D03*
X183760000Y-116735000D03*
X179260000Y-110235000D03*
X179260000Y-116735000D03*
%TD*%
D15*
%TO.C,SCK1*%
X184260000Y-76235000D03*
%TD*%
D13*
%TO.C,H1*%
X183010000Y-49485000D03*
X184866155Y-50253845D03*
X181153845Y-50253845D03*
X185635000Y-52110000D03*
D14*
X183010000Y-52110000D03*
D13*
X180385000Y-52110000D03*
X184866155Y-53966155D03*
X181153845Y-53966155D03*
X183010000Y-54735000D03*
%TD*%
D33*
%TO.C,J1*%
X127360000Y-110115000D03*
D34*
X127360000Y-112655000D03*
X127360000Y-115195000D03*
X127360000Y-117735000D03*
%TD*%
D15*
%TO.C,MOSI1*%
X184260000Y-71735000D03*
%TD*%
D19*
%TO.C,J5*%
X179260000Y-60485000D03*
D20*
X174260000Y-60485000D03*
%TD*%
D35*
%TO.C,D2*%
X183310000Y-98235000D03*
X181260000Y-98235000D03*
%TD*%
D36*
%TO.C,U2*%
X152760000Y-99735000D03*
X152760000Y-102015000D03*
D37*
X159060000Y-102015000D03*
D36*
X152760000Y-104295000D03*
%TD*%
D13*
%TO.C,H2*%
X126010000Y-49485000D03*
X127866155Y-50253845D03*
X124153845Y-50253845D03*
X128635000Y-52110000D03*
D14*
X126010000Y-52110000D03*
D13*
X123385000Y-52110000D03*
X127866155Y-53966155D03*
X124153845Y-53966155D03*
X126010000Y-54735000D03*
%TD*%
%TO.C,H4*%
X126010000Y-120735000D03*
X127866155Y-121503845D03*
X124153845Y-121503845D03*
X128635000Y-123360000D03*
D14*
X126010000Y-123360000D03*
D13*
X123385000Y-123360000D03*
X127866155Y-125216155D03*
X124153845Y-125216155D03*
X126010000Y-125985000D03*
%TD*%
D38*
%TO.C,C2*%
X149760000Y-101690000D03*
X149760000Y-99735000D03*
%TD*%
D39*
%TO.C,D1*%
X166760000Y-94735000D03*
X162760000Y-94735000D03*
%TD*%
D40*
%TO.C,C1*%
X154305000Y-107235000D03*
X156260000Y-107235000D03*
%TD*%
D41*
%TO.C,C3*%
X172335000Y-100235000D03*
X170260000Y-100235000D03*
%TD*%
M02*
