%TF.GenerationSoftware,KiCad,Pcbnew,9.0.7-9.0.7~ubuntu22.04.1*%
%TF.CreationDate,2026-01-30T05:50:44+05:30*%
%TF.ProjectId,SOLDERING_IRON_CONTROLLER,534f4c44-4552-4494-9e47-5f49524f4e5f,rev?*%
%TF.SameCoordinates,Original*%
%TF.FileFunction,Legend,Bot*%
%TF.FilePolarity,Positive*%
%FSLAX46Y46*%
G04 Gerber Fmt 4.6, Leading zero omitted, Abs format (unit mm)*
G04 Created by KiCad (PCBNEW 9.0.7-9.0.7~ubuntu22.04.1) date 2026-01-30 05:50:44*
%MOMM*%
%LPD*%
G01*
G04 APERTURE LIST*
%ADD10C,0.200000*%
%ADD11C,0.120000*%
%ADD12C,0.000000*%
G04 APERTURE END LIST*
D10*
X175890326Y-122971266D02*
X175128422Y-122971266D01*
X173890326Y-123352219D02*
X173890326Y-122352219D01*
X173890326Y-122352219D02*
X173652231Y-122352219D01*
X173652231Y-122352219D02*
X173509374Y-122399838D01*
X173509374Y-122399838D02*
X173414136Y-122495076D01*
X173414136Y-122495076D02*
X173366517Y-122590314D01*
X173366517Y-122590314D02*
X173318898Y-122780790D01*
X173318898Y-122780790D02*
X173318898Y-122923647D01*
X173318898Y-122923647D02*
X173366517Y-123114123D01*
X173366517Y-123114123D02*
X173414136Y-123209361D01*
X173414136Y-123209361D02*
X173509374Y-123304600D01*
X173509374Y-123304600D02*
X173652231Y-123352219D01*
X173652231Y-123352219D02*
X173890326Y-123352219D01*
X172890326Y-122828409D02*
X172556993Y-122828409D01*
X172414136Y-123352219D02*
X172890326Y-123352219D01*
X172890326Y-123352219D02*
X172890326Y-122352219D01*
X172890326Y-122352219D02*
X172414136Y-122352219D01*
X172033183Y-123304600D02*
X171890326Y-123352219D01*
X171890326Y-123352219D02*
X171652231Y-123352219D01*
X171652231Y-123352219D02*
X171556993Y-123304600D01*
X171556993Y-123304600D02*
X171509374Y-123256980D01*
X171509374Y-123256980D02*
X171461755Y-123161742D01*
X171461755Y-123161742D02*
X171461755Y-123066504D01*
X171461755Y-123066504D02*
X171509374Y-122971266D01*
X171509374Y-122971266D02*
X171556993Y-122923647D01*
X171556993Y-122923647D02*
X171652231Y-122876028D01*
X171652231Y-122876028D02*
X171842707Y-122828409D01*
X171842707Y-122828409D02*
X171937945Y-122780790D01*
X171937945Y-122780790D02*
X171985564Y-122733171D01*
X171985564Y-122733171D02*
X172033183Y-122637933D01*
X172033183Y-122637933D02*
X172033183Y-122542695D01*
X172033183Y-122542695D02*
X171985564Y-122447457D01*
X171985564Y-122447457D02*
X171937945Y-122399838D01*
X171937945Y-122399838D02*
X171842707Y-122352219D01*
X171842707Y-122352219D02*
X171604612Y-122352219D01*
X171604612Y-122352219D02*
X171461755Y-122399838D01*
X171033183Y-123352219D02*
X171033183Y-122352219D01*
X170033184Y-122399838D02*
X170128422Y-122352219D01*
X170128422Y-122352219D02*
X170271279Y-122352219D01*
X170271279Y-122352219D02*
X170414136Y-122399838D01*
X170414136Y-122399838D02*
X170509374Y-122495076D01*
X170509374Y-122495076D02*
X170556993Y-122590314D01*
X170556993Y-122590314D02*
X170604612Y-122780790D01*
X170604612Y-122780790D02*
X170604612Y-122923647D01*
X170604612Y-122923647D02*
X170556993Y-123114123D01*
X170556993Y-123114123D02*
X170509374Y-123209361D01*
X170509374Y-123209361D02*
X170414136Y-123304600D01*
X170414136Y-123304600D02*
X170271279Y-123352219D01*
X170271279Y-123352219D02*
X170176041Y-123352219D01*
X170176041Y-123352219D02*
X170033184Y-123304600D01*
X170033184Y-123304600D02*
X169985565Y-123256980D01*
X169985565Y-123256980D02*
X169985565Y-122923647D01*
X169985565Y-122923647D02*
X170176041Y-122923647D01*
X169556993Y-123352219D02*
X169556993Y-122352219D01*
X169556993Y-122352219D02*
X168985565Y-123352219D01*
X168985565Y-123352219D02*
X168985565Y-122352219D01*
X168509374Y-122828409D02*
X168176041Y-122828409D01*
X168033184Y-123352219D02*
X168509374Y-123352219D01*
X168509374Y-123352219D02*
X168509374Y-122352219D01*
X168509374Y-122352219D02*
X168033184Y-122352219D01*
X167604612Y-123352219D02*
X167604612Y-122352219D01*
X167604612Y-122352219D02*
X167366517Y-122352219D01*
X167366517Y-122352219D02*
X167223660Y-122399838D01*
X167223660Y-122399838D02*
X167128422Y-122495076D01*
X167128422Y-122495076D02*
X167080803Y-122590314D01*
X167080803Y-122590314D02*
X167033184Y-122780790D01*
X167033184Y-122780790D02*
X167033184Y-122923647D01*
X167033184Y-122923647D02*
X167080803Y-123114123D01*
X167080803Y-123114123D02*
X167128422Y-123209361D01*
X167128422Y-123209361D02*
X167223660Y-123304600D01*
X167223660Y-123304600D02*
X167366517Y-123352219D01*
X167366517Y-123352219D02*
X167604612Y-123352219D01*
X165509374Y-122828409D02*
X165366517Y-122876028D01*
X165366517Y-122876028D02*
X165318898Y-122923647D01*
X165318898Y-122923647D02*
X165271279Y-123018885D01*
X165271279Y-123018885D02*
X165271279Y-123161742D01*
X165271279Y-123161742D02*
X165318898Y-123256980D01*
X165318898Y-123256980D02*
X165366517Y-123304600D01*
X165366517Y-123304600D02*
X165461755Y-123352219D01*
X165461755Y-123352219D02*
X165842707Y-123352219D01*
X165842707Y-123352219D02*
X165842707Y-122352219D01*
X165842707Y-122352219D02*
X165509374Y-122352219D01*
X165509374Y-122352219D02*
X165414136Y-122399838D01*
X165414136Y-122399838D02*
X165366517Y-122447457D01*
X165366517Y-122447457D02*
X165318898Y-122542695D01*
X165318898Y-122542695D02*
X165318898Y-122637933D01*
X165318898Y-122637933D02*
X165366517Y-122733171D01*
X165366517Y-122733171D02*
X165414136Y-122780790D01*
X165414136Y-122780790D02*
X165509374Y-122828409D01*
X165509374Y-122828409D02*
X165842707Y-122828409D01*
X164652231Y-122876028D02*
X164652231Y-123352219D01*
X164985564Y-122352219D02*
X164652231Y-122876028D01*
X164652231Y-122876028D02*
X164318898Y-122352219D01*
D11*
%TO.C,J2*%
X174607300Y-96125000D02*
X158912700Y-96125000D01*
X181070000Y-100625000D02*
X177452000Y-100625000D01*
X156068000Y-100625000D02*
X152450000Y-100625000D01*
X181070000Y-102335000D02*
X181070000Y-100625000D01*
X152450000Y-102335000D02*
X152450000Y-100625000D01*
X181070000Y-106135000D02*
X181070000Y-107845000D01*
X152450000Y-106135000D02*
X152450000Y-107845000D01*
X177452000Y-107845000D02*
X181070000Y-107845000D01*
X152450000Y-107845000D02*
X156068000Y-107845000D01*
X168420000Y-110145000D02*
X170620000Y-112345000D01*
X165100000Y-110145000D02*
X168420000Y-110145000D01*
X165100000Y-110145000D02*
X162900000Y-112345000D01*
X170620000Y-112345000D02*
X174607300Y-112345000D01*
X158912700Y-112345000D02*
X162900000Y-112345000D01*
X174605371Y-96123211D02*
G75*
G02*
X177451999Y-100625000I-7845391J-8111799D01*
G01*
X156068000Y-100625000D02*
G75*
G02*
X158914629Y-96123211I10692020J-3610012D01*
G01*
X177452000Y-107845000D02*
G75*
G02*
X174605371Y-112346789I-10691979J3609986D01*
G01*
X158914629Y-112346789D02*
G75*
G02*
X156068000Y-107845000I7845391J8111801D01*
G01*
D12*
%TO.C,G\u002A\u002A\u002A*%
G36*
X158464281Y-122384435D02*
G01*
X158507971Y-122428462D01*
X158585724Y-122511029D01*
X158639465Y-122574031D01*
X158659528Y-122606473D01*
X158648188Y-122637056D01*
X158609619Y-122690148D01*
X158595214Y-122706708D01*
X158576660Y-122724385D01*
X158555657Y-122727404D01*
X158523737Y-122710697D01*
X158472433Y-122669196D01*
X158393278Y-122597831D01*
X158277805Y-122491536D01*
X158116613Y-122343345D01*
X158192824Y-122267134D01*
X158269034Y-122190924D01*
X158464281Y-122384435D01*
G37*
G36*
X160370875Y-124559808D02*
G01*
X160370875Y-124816442D01*
X160280804Y-124816442D01*
X160259452Y-124816203D01*
X160212851Y-124807158D01*
X160194157Y-124772314D01*
X160190733Y-124694575D01*
X160190172Y-124668202D01*
X160180421Y-124604778D01*
X160160710Y-124591264D01*
X160158061Y-124593303D01*
X160138642Y-124638348D01*
X160130686Y-124713131D01*
X160127343Y-124772675D01*
X160106588Y-124808462D01*
X160055318Y-124816442D01*
X160019838Y-124814574D01*
X159997339Y-124800930D01*
X159986686Y-124763451D01*
X159984591Y-124690076D01*
X159987764Y-124568747D01*
X159992320Y-124424363D01*
X160130686Y-124424363D01*
X160131831Y-124432786D01*
X160160710Y-124471170D01*
X160176178Y-124473994D01*
X160190733Y-124442918D01*
X160187059Y-124420549D01*
X160160710Y-124396111D01*
X160153586Y-124396919D01*
X160130686Y-124424363D01*
X159992320Y-124424363D01*
X159995580Y-124321052D01*
X160183227Y-124312113D01*
X160370875Y-124303175D01*
X160370875Y-124442918D01*
X160370875Y-124559808D01*
G37*
G36*
X158992692Y-124306264D02*
G01*
X159111296Y-124309178D01*
X159183804Y-124316636D01*
X159220077Y-124330111D01*
X159229977Y-124351075D01*
X159224746Y-124372078D01*
X159184941Y-124396111D01*
X159176203Y-124397113D01*
X159154262Y-124419100D01*
X159143051Y-124478401D01*
X159139906Y-124586261D01*
X159137394Y-124677898D01*
X159129655Y-124758641D01*
X159118512Y-124797804D01*
X159086517Y-124809513D01*
X159020935Y-124810314D01*
X159008937Y-124808771D01*
X158973035Y-124797645D01*
X158952619Y-124768209D01*
X158942096Y-124706553D01*
X158935874Y-124598770D01*
X158935053Y-124581226D01*
X158925639Y-124472496D01*
X158909600Y-124413735D01*
X158884705Y-124396111D01*
X158881032Y-124396366D01*
X158857366Y-124418649D01*
X158842277Y-124483173D01*
X158833535Y-124598770D01*
X158824658Y-124801430D01*
X158734587Y-124801430D01*
X158644516Y-124801430D01*
X158635796Y-124553735D01*
X158627075Y-124306040D01*
X158928526Y-124306040D01*
X158992692Y-124306264D01*
G37*
G36*
X161915086Y-124626335D02*
G01*
X161927406Y-124717729D01*
X161932104Y-124769684D01*
X161912403Y-124803799D01*
X161842033Y-124816442D01*
X161778816Y-124807160D01*
X161751963Y-124771406D01*
X161748575Y-124750689D01*
X161721939Y-124726371D01*
X161708127Y-124731452D01*
X161691915Y-124771406D01*
X161673352Y-124803015D01*
X161601844Y-124816442D01*
X161552748Y-124815550D01*
X161524955Y-124804723D01*
X161516258Y-124771624D01*
X161523486Y-124703919D01*
X161543471Y-124589273D01*
X161548581Y-124560637D01*
X161728354Y-124560637D01*
X161731947Y-124596268D01*
X161740977Y-124600965D01*
X161751963Y-124576253D01*
X161749796Y-124560358D01*
X161731947Y-124556237D01*
X161728354Y-124560637D01*
X161548581Y-124560637D01*
X161555549Y-124521583D01*
X161576833Y-124414669D01*
X161597959Y-124350652D01*
X161626346Y-124318538D01*
X161669412Y-124307332D01*
X161734574Y-124306040D01*
X161863257Y-124306040D01*
X161897681Y-124514483D01*
X161897803Y-124515223D01*
X161907296Y-124576253D01*
X161915086Y-124626335D01*
G37*
G36*
X158596033Y-124642269D02*
G01*
X158583093Y-124731692D01*
X158563452Y-124780413D01*
X158554944Y-124787039D01*
X158490138Y-124807644D01*
X158398821Y-124815159D01*
X158307151Y-124808940D01*
X158241285Y-124788344D01*
X158226228Y-124771379D01*
X158200938Y-124697971D01*
X158185378Y-124582004D01*
X158183064Y-124544457D01*
X158359291Y-124544457D01*
X158361061Y-124595613D01*
X158371895Y-124672883D01*
X158389315Y-124711359D01*
X158401137Y-124708599D01*
X158414556Y-124660120D01*
X158419338Y-124563013D01*
X158416586Y-124493406D01*
X158405681Y-124423272D01*
X158389315Y-124396111D01*
X158378700Y-124405741D01*
X158364752Y-124459406D01*
X158359291Y-124544457D01*
X158183064Y-124544457D01*
X158182126Y-124529248D01*
X158183284Y-124441945D01*
X158199803Y-124385317D01*
X158235831Y-124339429D01*
X158321137Y-124288556D01*
X158428669Y-124281012D01*
X158532753Y-124322754D01*
X158555589Y-124341051D01*
X158583317Y-124382495D01*
X158596276Y-124448589D01*
X158599480Y-124556939D01*
X158599235Y-124563013D01*
X158596033Y-124642269D01*
G37*
G36*
X158110123Y-124308327D02*
G01*
X158132533Y-124323101D01*
X158144128Y-124362251D01*
X158148470Y-124437667D01*
X158149126Y-124561241D01*
X158148456Y-124683844D01*
X158144112Y-124759688D01*
X158132597Y-124799144D01*
X158110414Y-124814099D01*
X158074067Y-124816442D01*
X158061154Y-124816249D01*
X158019998Y-124806311D01*
X158001869Y-124769329D01*
X157996797Y-124688841D01*
X157994586Y-124561241D01*
X157945557Y-124688841D01*
X157918793Y-124750119D01*
X157878483Y-124802044D01*
X157827673Y-124816442D01*
X157797960Y-124814291D01*
X157776034Y-124799569D01*
X157764336Y-124760397D01*
X157759664Y-124684909D01*
X157758818Y-124561241D01*
X157759488Y-124438638D01*
X157763832Y-124362793D01*
X157775347Y-124323338D01*
X157797530Y-124308383D01*
X157833877Y-124306040D01*
X157872469Y-124309417D01*
X157902470Y-124335764D01*
X157910112Y-124403617D01*
X157911287Y-124501194D01*
X157953698Y-124403617D01*
X157963227Y-124383042D01*
X158009189Y-124322990D01*
X158072617Y-124306040D01*
X158073331Y-124306040D01*
X158110123Y-124308327D01*
G37*
G36*
X160680270Y-124288504D02*
G01*
X160761182Y-124336063D01*
X160792603Y-124386726D01*
X160817722Y-124484804D01*
X160823464Y-124596810D01*
X160809138Y-124699409D01*
X160774050Y-124769262D01*
X160769120Y-124773712D01*
X160702044Y-124804225D01*
X160611064Y-124816442D01*
X160498522Y-124797053D01*
X160426103Y-124740026D01*
X160400899Y-124649167D01*
X160402921Y-124618788D01*
X160426463Y-124584464D01*
X160490970Y-124576253D01*
X160531388Y-124578170D01*
X160571687Y-124598259D01*
X160581041Y-124653084D01*
X160588801Y-124700729D01*
X160611064Y-124711359D01*
X160621196Y-124696352D01*
X160635480Y-124633996D01*
X160641088Y-124544457D01*
X160639139Y-124492010D01*
X160628278Y-124423095D01*
X160611064Y-124396111D01*
X160593614Y-124407371D01*
X160581041Y-124456158D01*
X160580111Y-124471659D01*
X160556899Y-124506769D01*
X160490970Y-124516205D01*
X160453092Y-124514536D01*
X160410946Y-124495361D01*
X160400899Y-124442849D01*
X160401007Y-124437381D01*
X160429700Y-124359510D01*
X160497297Y-124305335D01*
X160586564Y-124279964D01*
X160680270Y-124288504D01*
G37*
G36*
X161400009Y-124306044D02*
G01*
X161460213Y-124310899D01*
X161478235Y-124337339D01*
X161467572Y-124403617D01*
X161465886Y-124411214D01*
X161452693Y-124476837D01*
X161448780Y-124529290D01*
X161454300Y-124592713D01*
X161469407Y-124691248D01*
X161477913Y-124746919D01*
X161478910Y-124798231D01*
X161456895Y-124814677D01*
X161403603Y-124811343D01*
X161379507Y-124807666D01*
X161325258Y-124779291D01*
X161299881Y-124711359D01*
X161282857Y-124621288D01*
X161259823Y-124718865D01*
X161246018Y-124765804D01*
X161212761Y-124806775D01*
X161149104Y-124816442D01*
X161145870Y-124816444D01*
X161089705Y-124815279D01*
X161067704Y-124801818D01*
X161075599Y-124761454D01*
X161109123Y-124679580D01*
X161126881Y-124629930D01*
X161140718Y-124500431D01*
X161105345Y-124358581D01*
X161100614Y-124344233D01*
X161108836Y-124313865D01*
X161164257Y-124306040D01*
X161221832Y-124317518D01*
X161270649Y-124373593D01*
X161297802Y-124441146D01*
X161299705Y-124373593D01*
X161302523Y-124346933D01*
X161328329Y-124314206D01*
X161395432Y-124306040D01*
X161400009Y-124306044D01*
G37*
G36*
X162088341Y-124311759D02*
G01*
X162108930Y-124313360D01*
X162181514Y-124325408D01*
X162216882Y-124353670D01*
X162234066Y-124411123D01*
X162251091Y-124501194D01*
X162274125Y-124403617D01*
X162276355Y-124394346D01*
X162297935Y-124335511D01*
X162337056Y-124310964D01*
X162414868Y-124306040D01*
X162532577Y-124306040D01*
X162532577Y-124561241D01*
X162531907Y-124683844D01*
X162527563Y-124759688D01*
X162516048Y-124799144D01*
X162493865Y-124814099D01*
X162457518Y-124816442D01*
X162424404Y-124814485D01*
X162395933Y-124797635D01*
X162383257Y-124750746D01*
X162378892Y-124658818D01*
X162375326Y-124501194D01*
X162346300Y-124660569D01*
X162337137Y-124708057D01*
X162317350Y-124778534D01*
X162292276Y-124808343D01*
X162253775Y-124810687D01*
X162216977Y-124795809D01*
X162183527Y-124746818D01*
X162154828Y-124651312D01*
X162119379Y-124501194D01*
X162115813Y-124660906D01*
X162113386Y-124730153D01*
X162104690Y-124789124D01*
X162083980Y-124811463D01*
X162044693Y-124811024D01*
X162021764Y-124806299D01*
X161996878Y-124789247D01*
X161982129Y-124749462D01*
X161973854Y-124674508D01*
X161968391Y-124551948D01*
X161959642Y-124302466D01*
X162088341Y-124311759D01*
G37*
G36*
X156992566Y-124707855D02*
G01*
X156959501Y-124770808D01*
X156900487Y-124803255D01*
X156787822Y-124810482D01*
X156732881Y-124803919D01*
X156664968Y-124776746D01*
X156618876Y-124718865D01*
X156595570Y-124672035D01*
X156593396Y-124651312D01*
X156768038Y-124651312D01*
X156775492Y-124700677D01*
X156798062Y-124726371D01*
X156817808Y-124707735D01*
X156828085Y-124651312D01*
X156820631Y-124601946D01*
X156798062Y-124576253D01*
X156778316Y-124594888D01*
X156768038Y-124651312D01*
X156593396Y-124651312D01*
X156590004Y-124618977D01*
X156619589Y-124553735D01*
X156670523Y-124493163D01*
X156747189Y-124472353D01*
X156755531Y-124472377D01*
X156812285Y-124459021D01*
X156828085Y-124413807D01*
X156828072Y-124410633D01*
X156820190Y-124373790D01*
X156792057Y-124390106D01*
X156758307Y-124410899D01*
X156697251Y-124424707D01*
X156641987Y-124420720D01*
X156617920Y-124397813D01*
X156627884Y-124373303D01*
X156676906Y-124328901D01*
X156746364Y-124291649D01*
X156813074Y-124276016D01*
X156867762Y-124286794D01*
X156941500Y-124322754D01*
X156958027Y-124335416D01*
X156989579Y-124376371D01*
X157004481Y-124440372D01*
X157008227Y-124545787D01*
X157007140Y-124599022D01*
X157000138Y-124651312D01*
X156992566Y-124707855D01*
G37*
G36*
X157458357Y-124475531D02*
G01*
X157445057Y-124571553D01*
X157406315Y-124621790D01*
X157335275Y-124636300D01*
X157328031Y-124636364D01*
X157267000Y-124649136D01*
X157250787Y-124688841D01*
X157255083Y-124714384D01*
X157268300Y-124703853D01*
X157272296Y-124696863D01*
X157315105Y-124673221D01*
X157377618Y-124666891D01*
X157434042Y-124677670D01*
X157458582Y-124705354D01*
X157454575Y-124727196D01*
X157422554Y-124780413D01*
X157411203Y-124788495D01*
X157346644Y-124808453D01*
X157258480Y-124816442D01*
X157225934Y-124815600D01*
X157146793Y-124798952D01*
X157098654Y-124753305D01*
X157074740Y-124668629D01*
X157068275Y-124534893D01*
X157068386Y-124513007D01*
X157073766Y-124432092D01*
X157252344Y-124432092D01*
X157256580Y-124508699D01*
X157261039Y-124526599D01*
X157272626Y-124545510D01*
X157292018Y-124508699D01*
X157300358Y-124475428D01*
X157292018Y-124403617D01*
X157284049Y-124385717D01*
X157268753Y-124366806D01*
X157256580Y-124403617D01*
X157252344Y-124432092D01*
X157073766Y-124432092D01*
X157074644Y-124418882D01*
X157094839Y-124361857D01*
X157135002Y-124322754D01*
X157191735Y-124292983D01*
X157263428Y-124276016D01*
X157267844Y-124276068D01*
X157362266Y-124302884D01*
X157431617Y-124367969D01*
X157458582Y-124455405D01*
X157458358Y-124475428D01*
X157458357Y-124475531D01*
G37*
G36*
X159584861Y-124612590D02*
G01*
X159592631Y-124690319D01*
X159592641Y-124690673D01*
X159598778Y-124736625D01*
X159610144Y-124733877D01*
X159627639Y-124713508D01*
X159682833Y-124696347D01*
X159715531Y-124688317D01*
X159740379Y-124651312D01*
X159735148Y-124630309D01*
X159695343Y-124606276D01*
X159669081Y-124595131D01*
X159650308Y-124546229D01*
X159658666Y-124511212D01*
X159695343Y-124486182D01*
X159716346Y-124480951D01*
X159740379Y-124441146D01*
X159729234Y-124414884D01*
X159680331Y-124396111D01*
X159645315Y-124387752D01*
X159620284Y-124351075D01*
X159634561Y-124324270D01*
X159685831Y-124310083D01*
X159785414Y-124306040D01*
X159950544Y-124306040D01*
X159950544Y-124541225D01*
X159950420Y-124567701D01*
X159947093Y-124677201D01*
X159940151Y-124758677D01*
X159930831Y-124796123D01*
X159927088Y-124798339D01*
X159878386Y-124806801D01*
X159789237Y-124812152D01*
X159675630Y-124813316D01*
X159599038Y-124811716D01*
X159504361Y-124804763D01*
X159454596Y-124790993D01*
X159440142Y-124768583D01*
X159434944Y-124748955D01*
X159395107Y-124726371D01*
X159374104Y-124731602D01*
X159350071Y-124771406D01*
X159329684Y-124803945D01*
X159256788Y-124816442D01*
X159191425Y-124807546D01*
X159177777Y-124778912D01*
X159178503Y-124776873D01*
X159191251Y-124725827D01*
X159209953Y-124635385D01*
X159225029Y-124554751D01*
X159384486Y-124554751D01*
X159390425Y-124614354D01*
X159391621Y-124617030D01*
X159401020Y-124612516D01*
X159404265Y-124561241D01*
X159404067Y-124551917D01*
X159398869Y-124512039D01*
X159389312Y-124524283D01*
X159384486Y-124554751D01*
X159225029Y-124554751D01*
X159230833Y-124523711D01*
X159269617Y-124306040D01*
X159397427Y-124306040D01*
X159525237Y-124306040D01*
X159557749Y-124457636D01*
X159567881Y-124508300D01*
X159576501Y-124561241D01*
X159584861Y-124612590D01*
G37*
G36*
X162997944Y-122587901D02*
G01*
X162997944Y-124020815D01*
X159980568Y-124037361D01*
X159455958Y-124040214D01*
X158939231Y-124042957D01*
X158476771Y-124045313D01*
X158065563Y-124047278D01*
X157702593Y-124048846D01*
X157384849Y-124050013D01*
X157109315Y-124050773D01*
X156872979Y-124051123D01*
X156672826Y-124051057D01*
X156505843Y-124050570D01*
X156369016Y-124049657D01*
X156259331Y-124048314D01*
X156173775Y-124046536D01*
X156109333Y-124044318D01*
X156062991Y-124041654D01*
X156031737Y-124038541D01*
X156012557Y-124034973D01*
X156002435Y-124030945D01*
X156001872Y-124030438D01*
X155994400Y-123991216D01*
X155988369Y-123893288D01*
X155986380Y-123825662D01*
X156257636Y-123825662D01*
X157653736Y-123825662D01*
X159049835Y-123825662D01*
X159054724Y-123517919D01*
X159056205Y-123425749D01*
X159059636Y-123210227D01*
X159061679Y-123044826D01*
X159061771Y-122922270D01*
X159059348Y-122835280D01*
X159053846Y-122776579D01*
X159044702Y-122738891D01*
X159031354Y-122714936D01*
X159013237Y-122697438D01*
X158989788Y-122679119D01*
X158954096Y-122649102D01*
X158876609Y-122581363D01*
X158777309Y-122492851D01*
X158669078Y-122394979D01*
X158576790Y-122310721D01*
X158465080Y-122210055D01*
X158380344Y-122139795D01*
X158311453Y-122094504D01*
X158247278Y-122068744D01*
X158176690Y-122057076D01*
X158088558Y-122054063D01*
X157971754Y-122054267D01*
X157668747Y-122054267D01*
X157668747Y-122909941D01*
X157668747Y-123765614D01*
X157458582Y-123765614D01*
X157248416Y-123765614D01*
X157248416Y-122909941D01*
X157248416Y-122054267D01*
X157011439Y-122054267D01*
X156890650Y-122056375D01*
X156806768Y-122068161D01*
X156760970Y-122097312D01*
X156741853Y-122151509D01*
X156738015Y-122238433D01*
X156735705Y-122288272D01*
X156718724Y-122314770D01*
X156671982Y-122322305D01*
X156580390Y-122318543D01*
X156422766Y-122309468D01*
X156422766Y-121979208D01*
X156422766Y-121648948D01*
X157481089Y-121641058D01*
X158539411Y-121633168D01*
X158809635Y-121899306D01*
X159079858Y-122165444D01*
X159079858Y-122410092D01*
X159080132Y-122448088D01*
X159084164Y-122553323D01*
X159092010Y-122626512D01*
X159102376Y-122653660D01*
X159104467Y-122653352D01*
X159143928Y-122631508D01*
X159144249Y-122631261D01*
X159691355Y-122631261D01*
X159731819Y-122676204D01*
X159751978Y-122695768D01*
X159781433Y-122713724D01*
X159815622Y-122707278D01*
X159868418Y-122671840D01*
X159953696Y-122602821D01*
X160055864Y-122518538D01*
X160130620Y-122454031D01*
X160170984Y-122411313D01*
X160183094Y-122381598D01*
X160173090Y-122356102D01*
X160147110Y-122326040D01*
X160133591Y-122311355D01*
X160105037Y-122289266D01*
X160073232Y-122292375D01*
X160024055Y-122325300D01*
X159943385Y-122392659D01*
X159869626Y-122455065D01*
X159788283Y-122522971D01*
X159733101Y-122567970D01*
X159693696Y-122602378D01*
X159691355Y-122631261D01*
X159144249Y-122631261D01*
X159202848Y-122586107D01*
X159265025Y-122533983D01*
X159376274Y-122442613D01*
X159506663Y-122336868D01*
X159640248Y-122229600D01*
X159761084Y-122133661D01*
X159853227Y-122061901D01*
X159904161Y-122024790D01*
X159976573Y-121985714D01*
X160055856Y-121968391D01*
X160168475Y-121964659D01*
X160355863Y-121965121D01*
X160490970Y-122161101D01*
X160571248Y-122276727D01*
X160644812Y-122381598D01*
X160668285Y-122415061D01*
X160753676Y-122535461D01*
X160758439Y-122542156D01*
X160820507Y-122637028D01*
X160864540Y-122718094D01*
X160881277Y-122768439D01*
X160870188Y-122800208D01*
X160824303Y-122872229D01*
X160741703Y-122981489D01*
X160621177Y-123129511D01*
X160461512Y-123317821D01*
X160261495Y-123547943D01*
X160096929Y-123735591D01*
X160336014Y-123735591D01*
X160575099Y-123735591D01*
X160735694Y-123548255D01*
X160748018Y-123533886D01*
X160835997Y-123431695D01*
X160917444Y-123337661D01*
X160976124Y-123270536D01*
X160983142Y-123262573D01*
X161054656Y-123179977D01*
X161117738Y-123105094D01*
X161179516Y-123030035D01*
X161180514Y-123382813D01*
X161181513Y-123735591D01*
X161676903Y-123735591D01*
X162172293Y-123735591D01*
X162172293Y-123585472D01*
X162172293Y-123435354D01*
X161872057Y-123435354D01*
X161571821Y-123435354D01*
X161571821Y-122703451D01*
X161572079Y-122539573D01*
X161573611Y-122338430D01*
X161576837Y-122186345D01*
X161582122Y-122076717D01*
X161589826Y-122002947D01*
X161600314Y-121958437D01*
X161613946Y-121936587D01*
X161658588Y-121920166D01*
X161759801Y-121910021D01*
X161906677Y-121910393D01*
X162157282Y-121919160D01*
X162166357Y-122076785D01*
X162175432Y-122234409D01*
X162323981Y-122234409D01*
X162472530Y-122234409D01*
X162472530Y-121934172D01*
X162472530Y-121633936D01*
X161827022Y-121633936D01*
X161181513Y-121633936D01*
X161180321Y-122016737D01*
X161179129Y-122399539D01*
X161047761Y-122256834D01*
X161024956Y-122231231D01*
X160939742Y-122126828D01*
X160844615Y-122000558D01*
X160756223Y-121874270D01*
X160596052Y-121634411D01*
X160152342Y-121634173D01*
X159708631Y-121633936D01*
X159401751Y-121887458D01*
X159094870Y-122140981D01*
X159086493Y-121752352D01*
X159078116Y-121363723D01*
X157687521Y-121363723D01*
X156296927Y-121363723D01*
X156277403Y-121746524D01*
X156272830Y-121859747D01*
X156267979Y-122036711D01*
X156263841Y-122249828D01*
X156260621Y-122486239D01*
X156258525Y-122733081D01*
X156257758Y-122977494D01*
X156257636Y-123825662D01*
X155986380Y-123825662D01*
X155983799Y-123737893D01*
X155980707Y-123526270D01*
X155979112Y-123259658D01*
X155979033Y-122939298D01*
X155980487Y-122566427D01*
X155988563Y-121121296D01*
X159493253Y-121138142D01*
X162997944Y-121154987D01*
X162997944Y-121633936D01*
X162997944Y-122587901D01*
G37*
%TD*%
M02*
