%TF.GenerationSoftware,KiCad,Pcbnew,9.0.7-9.0.7~ubuntu22.04.1*%
%TF.CreationDate,2026-01-30T05:50:44+05:30*%
%TF.ProjectId,SOLDERING_IRON_CONTROLLER,534f4c44-4552-4494-9e47-5f49524f4e5f,rev?*%
%TF.SameCoordinates,Original*%
%TF.FileFunction,Copper,L2,Bot*%
%TF.FilePolarity,Positive*%
%FSLAX46Y46*%
G04 Gerber Fmt 4.6, Leading zero omitted, Abs format (unit mm)*
G04 Created by KiCad (PCBNEW 9.0.7-9.0.7~ubuntu22.04.1) date 2026-01-30 05:50:44*
%MOMM*%
%LPD*%
G01*
G04 APERTURE LIST*
G04 Aperture macros list*
%AMRoundRect*
0 Rectangle with rounded corners*
0 $1 Rounding radius*
0 $2 $3 $4 $5 $6 $7 $8 $9 X,Y pos of 4 corners*
0 Add a 4 corners polygon primitive as box body*
4,1,4,$2,$3,$4,$5,$6,$7,$8,$9,$2,$3,0*
0 Add four circle primitives for the rounded corners*
1,1,$1+$1,$2,$3*
1,1,$1+$1,$4,$5*
1,1,$1+$1,$6,$7*
1,1,$1+$1,$8,$9*
0 Add four rect primitives between the rounded corners*
20,1,$1+$1,$2,$3,$4,$5,0*
20,1,$1+$1,$4,$5,$6,$7,0*
20,1,$1+$1,$6,$7,$8,$9,0*
20,1,$1+$1,$8,$9,$2,$3,0*%
G04 Aperture macros list end*
%TA.AperFunction,ComponentPad*%
%ADD10RoundRect,0.750000X0.750000X-0.750000X0.750000X0.750000X-0.750000X0.750000X-0.750000X-0.750000X0*%
%TD*%
%TA.AperFunction,ComponentPad*%
%ADD11C,3.000000*%
%TD*%
%TA.AperFunction,ComponentPad*%
%ADD12C,0.800000*%
%TD*%
%TA.AperFunction,ComponentPad*%
%ADD13C,7.000000*%
%TD*%
%TA.AperFunction,ComponentPad*%
%ADD14R,1.600000X1.600000*%
%TD*%
%TA.AperFunction,ComponentPad*%
%ADD15C,1.600000*%
%TD*%
%TA.AperFunction,ComponentPad*%
%ADD16RoundRect,0.250001X1.149999X1.149999X-1.149999X1.149999X-1.149999X-1.149999X1.149999X-1.149999X0*%
%TD*%
%TA.AperFunction,ComponentPad*%
%ADD17C,2.800000*%
%TD*%
%TA.AperFunction,ComponentPad*%
%ADD18C,1.800000*%
%TD*%
%TA.AperFunction,ComponentPad*%
%ADD19RoundRect,0.250000X-0.750000X0.600000X-0.750000X-0.600000X0.750000X-0.600000X0.750000X0.600000X0*%
%TD*%
%TA.AperFunction,ComponentPad*%
%ADD20O,2.000000X1.700000*%
%TD*%
%TA.AperFunction,ComponentPad*%
%ADD21RoundRect,0.250000X-0.725000X0.600000X-0.725000X-0.600000X0.725000X-0.600000X0.725000X0.600000X0*%
%TD*%
%TA.AperFunction,ComponentPad*%
%ADD22O,1.950000X1.700000*%
%TD*%
%TA.AperFunction,ComponentPad*%
%ADD23R,1.980000X1.980000*%
%TD*%
%TA.AperFunction,ComponentPad*%
%ADD24C,1.980000*%
%TD*%
%TA.AperFunction,ComponentPad*%
%ADD25C,1.935000*%
%TD*%
%TA.AperFunction,ComponentPad*%
%ADD26C,2.000000*%
%TD*%
%TA.AperFunction,ComponentPad*%
%ADD27R,1.700000X1.700000*%
%TD*%
%TA.AperFunction,ComponentPad*%
%ADD28C,1.700000*%
%TD*%
%TA.AperFunction,SMDPad,CuDef*%
%ADD29R,2.540000X3.510000*%
%TD*%
%TA.AperFunction,ViaPad*%
%ADD30C,0.600000*%
%TD*%
%TA.AperFunction,ViaPad*%
%ADD31C,0.800000*%
%TD*%
%TA.AperFunction,Conductor*%
%ADD32C,0.500000*%
%TD*%
%TA.AperFunction,Conductor*%
%ADD33C,0.700000*%
%TD*%
%TA.AperFunction,Conductor*%
%ADD34C,0.400000*%
%TD*%
%TA.AperFunction,Conductor*%
%ADD35C,1.200000*%
%TD*%
G04 APERTURE END LIST*
D10*
%TO.P,F1,1*%
%TO.N,LIVE*%
X129750000Y-91370000D03*
X129750000Y-83750000D03*
D11*
%TO.P,F1,2*%
%TO.N,FUSED_LIVE*%
X129750000Y-64780000D03*
X129750000Y-57160000D03*
%TD*%
D12*
%TO.P,H3,1*%
%TO.N,N/C*%
X183010000Y-120735000D03*
X184866155Y-121503845D03*
X181153845Y-121503845D03*
X185635000Y-123360000D03*
D13*
X183010000Y-123360000D03*
D12*
X180385000Y-123360000D03*
X184866155Y-125216155D03*
X181153845Y-125216155D03*
X183010000Y-125985000D03*
%TD*%
D14*
%TO.P,RN1,1,common*%
%TO.N,3V3*%
X163640000Y-118235000D03*
D15*
%TO.P,RN1,2,R1*%
%TO.N,unconnected-(RN1-R1-Pad2)*%
X166180000Y-118235000D03*
%TO.P,RN1,3,R2*%
%TO.N,INT*%
X168720000Y-118235000D03*
%TO.P,RN1,4,R3*%
%TO.N,SCL*%
X171260000Y-118235000D03*
%TO.P,RN1,5,R4*%
%TO.N,SDA*%
X173800000Y-118235000D03*
%TD*%
D16*
%TO.P,J3,1,Pin_1*%
%TO.N,/LIVE1*%
X167260000Y-60485000D03*
D17*
%TO.P,J3,2,Pin_2*%
%TO.N,NEUTRAL*%
X162260000Y-60485000D03*
%TD*%
D18*
%TO.P,RV1,1*%
%TO.N,5V*%
X146510000Y-96735000D03*
%TO.P,RV1,2*%
%TO.N,GND*%
X142510000Y-104235000D03*
%TD*%
D19*
%TO.P,PS1,1,AC/L*%
%TO.N,FUSED_LIVE*%
X149260000Y-57155000D03*
D20*
%TO.P,PS1,2,AC/N*%
%TO.N,NEUTRAL*%
X144260000Y-57155000D03*
%TO.P,PS1,3,-Vout*%
%TO.N,GND*%
X154260000Y-86235000D03*
%TO.P,PS1,4,+Vout*%
%TO.N,5V*%
X139260000Y-86235000D03*
%TD*%
D21*
%TO.P,J4,1,Pin_1*%
%TO.N,5V*%
X135260000Y-98217500D03*
D22*
%TO.P,J4,2,Pin_2*%
%TO.N,/TEMP*%
X135260000Y-100717500D03*
%TO.P,J4,3,Pin_3*%
%TO.N,GND*%
X135260000Y-103217500D03*
%TD*%
D23*
%TO.P,K1,A1*%
%TO.N,5V*%
X161760000Y-86020000D03*
D24*
%TO.P,K1,A2*%
%TO.N,/MOS_1*%
X173760000Y-86020000D03*
D25*
%TO.P,K1,COM*%
%TO.N,LIVE*%
X167760000Y-88020000D03*
D24*
%TO.P,K1,NC*%
%TO.N,unconnected-(K1-PadNC)*%
X161760000Y-73820000D03*
%TO.P,K1,NO*%
%TO.N,/LIVE1*%
X173760000Y-73820000D03*
%TD*%
D26*
%TO.P,SW1,1,1*%
%TO.N,/SW*%
X183760000Y-110235000D03*
X183760000Y-116735000D03*
%TO.P,SW1,2,2*%
%TO.N,GND*%
X179260000Y-110235000D03*
X179260000Y-116735000D03*
%TD*%
D12*
%TO.P,H1,1*%
%TO.N,N/C*%
X183010000Y-49485000D03*
X184866155Y-50253845D03*
X181153845Y-50253845D03*
X185635000Y-52110000D03*
D13*
X183010000Y-52110000D03*
D12*
X180385000Y-52110000D03*
X184866155Y-53966155D03*
X181153845Y-53966155D03*
X183010000Y-54735000D03*
%TD*%
D27*
%TO.P,J1,1,Pin_1*%
%TO.N,SDA*%
X127360000Y-110115000D03*
D28*
%TO.P,J1,2,Pin_2*%
%TO.N,SCL*%
X127360000Y-112655000D03*
%TO.P,J1,3,Pin_3*%
%TO.N,5V*%
X127360000Y-115195000D03*
%TO.P,J1,4,Pin_4*%
%TO.N,GND*%
X127360000Y-117735000D03*
%TD*%
D16*
%TO.P,J5,1,Pin_1*%
%TO.N,LIVE*%
X179260000Y-60485000D03*
D17*
%TO.P,J5,2,Pin_2*%
%TO.N,NEUTRAL*%
X174260000Y-60485000D03*
%TD*%
D12*
%TO.P,H2,1*%
%TO.N,N/C*%
X126010000Y-49485000D03*
X127866155Y-50253845D03*
X124153845Y-50253845D03*
X128635000Y-52110000D03*
D13*
X126010000Y-52110000D03*
D12*
X123385000Y-52110000D03*
X127866155Y-53966155D03*
X124153845Y-53966155D03*
X126010000Y-54735000D03*
%TD*%
%TO.P,H4,1*%
%TO.N,N/C*%
X126010000Y-120735000D03*
X127866155Y-121503845D03*
X124153845Y-121503845D03*
X128635000Y-123360000D03*
D13*
X126010000Y-123360000D03*
D12*
X123385000Y-123360000D03*
X127866155Y-125216155D03*
X124153845Y-125216155D03*
X126010000Y-125985000D03*
%TD*%
D29*
%TO.P,J2,1,Pin_1*%
%TO.N,VBAT*%
X181440000Y-104235000D03*
%TO.P,J2,2,Pin_2*%
%TO.N,GND*%
X152080000Y-104235000D03*
%TD*%
D30*
%TO.N,5V*%
X179510000Y-77985000D03*
X185260000Y-88985000D03*
D31*
%TO.N,GND*%
X174760000Y-109985000D03*
X184010000Y-90235000D03*
X186510000Y-108485000D03*
X181260000Y-83735000D03*
D30*
%TO.N,SDA*%
X180510000Y-87485000D03*
%TO.N,SCL*%
X182010000Y-90485000D03*
%TO.N,VBAT*%
X172510000Y-110485000D03*
%TO.N,/TEMP*%
X180510000Y-79235000D03*
X142510000Y-101235000D03*
%TO.N,REL1*%
X179760000Y-86985000D03*
X172010000Y-96735000D03*
%TD*%
D32*
%TO.N,5V*%
X180392785Y-77985000D02*
X185260000Y-82852215D01*
D33*
X125959000Y-113794000D02*
X125959000Y-107518500D01*
X125959000Y-107518500D02*
X135260000Y-98217500D01*
D32*
X185260000Y-82852215D02*
X185260000Y-88985000D01*
X179510000Y-77985000D02*
X180392785Y-77985000D01*
D33*
X139260000Y-86235000D02*
X140661000Y-87636000D01*
X160144000Y-87636000D02*
X161760000Y-86020000D01*
D32*
X161760000Y-86020000D02*
X168725000Y-86020000D01*
D33*
X140661000Y-87636000D02*
X160144000Y-87636000D01*
D32*
X168725000Y-86020000D02*
X176760000Y-77985000D01*
D33*
X127360000Y-115195000D02*
X125959000Y-113794000D01*
D32*
X176760000Y-77985000D02*
X179510000Y-77985000D01*
D34*
%TO.N,GND*%
X176260000Y-108485000D02*
X174760000Y-109985000D01*
X181260000Y-83735000D02*
X184010000Y-86485000D01*
X186510000Y-108485000D02*
X176260000Y-108485000D01*
X184010000Y-86485000D02*
X184010000Y-90235000D01*
D35*
%TO.N,LIVE*%
X164410000Y-91370000D02*
X167760000Y-88020000D01*
X129750000Y-91370000D02*
X164410000Y-91370000D01*
D32*
%TO.N,SDA*%
X173800000Y-118235000D02*
X170760000Y-115195000D01*
X180510000Y-90155654D02*
X180510000Y-87485000D01*
X170760000Y-115195000D02*
X170760000Y-99905654D01*
X170760000Y-99905654D02*
X180510000Y-90155654D01*
X161260000Y-116985000D02*
X134230000Y-116985000D01*
X134230000Y-116985000D02*
X127360000Y-110115000D01*
X172549000Y-116984000D02*
X161261000Y-116984000D01*
X161261000Y-116984000D02*
X161260000Y-116985000D01*
X173800000Y-118235000D02*
X172549000Y-116984000D01*
%TO.N,SCL*%
X174318182Y-119486000D02*
X175051000Y-118753182D01*
X172511000Y-119486000D02*
X174318182Y-119486000D01*
D33*
X127360000Y-112655000D02*
X134291000Y-119586000D01*
D32*
X171461000Y-101034000D02*
X182010000Y-90485000D01*
D33*
X169909000Y-119586000D02*
X171260000Y-118235000D01*
D32*
X171260000Y-118235000D02*
X172511000Y-119486000D01*
D33*
X134291000Y-119586000D02*
X169909000Y-119586000D01*
D32*
X175051000Y-117325000D02*
X171461000Y-113735000D01*
X175051000Y-118753182D02*
X175051000Y-117325000D01*
X171461000Y-113735000D02*
X171461000Y-101034000D01*
D33*
%TO.N,VBAT*%
X181440000Y-104235000D02*
X178760000Y-104235000D01*
X178760000Y-104235000D02*
X172510000Y-110485000D01*
D35*
%TO.N,NEUTRAL*%
X162260000Y-60485000D02*
X147590000Y-60485000D01*
X172059000Y-58284000D02*
X164461000Y-58284000D01*
X174260000Y-60485000D02*
X172059000Y-58284000D01*
X164461000Y-58284000D02*
X162260000Y-60485000D01*
X147590000Y-60485000D02*
X144260000Y-57155000D01*
%TO.N,/LIVE1*%
X173760000Y-66985000D02*
X167260000Y-60485000D01*
X173760000Y-73820000D02*
X173760000Y-66985000D01*
D33*
%TO.N,/TEMP*%
X170010000Y-90985000D02*
X167760000Y-93235000D01*
X170010000Y-87590696D02*
X170010000Y-90985000D01*
X145510000Y-98235000D02*
X142510000Y-101235000D01*
X167760000Y-93235000D02*
X154260000Y-93235000D01*
X180510000Y-79235000D02*
X178365696Y-79235000D01*
X154260000Y-93235000D02*
X149260000Y-98235000D01*
X149260000Y-98235000D02*
X145510000Y-98235000D01*
X178365696Y-79235000D02*
X170010000Y-87590696D01*
D34*
%TO.N,REL1*%
X179760000Y-86985000D02*
X174260000Y-92485000D01*
X174260000Y-95485000D02*
X173010000Y-96735000D01*
X174260000Y-92485000D02*
X174260000Y-95485000D01*
X173010000Y-96735000D02*
X172010000Y-96735000D01*
%TD*%
%TA.AperFunction,Conductor*%
%TO.N,GND*%
G36*
X187452539Y-65254685D02*
G01*
X187498294Y-65307489D01*
X187509500Y-65359000D01*
X187509500Y-122732293D01*
X187509382Y-122737702D01*
X187492614Y-123121750D01*
X187491671Y-123132526D01*
X187441849Y-123510957D01*
X187439971Y-123521610D01*
X187357354Y-123894272D01*
X187354554Y-123904721D01*
X187239775Y-124268755D01*
X187236075Y-124278921D01*
X187090002Y-124631572D01*
X187085430Y-124641376D01*
X186909183Y-124979942D01*
X186903775Y-124989310D01*
X186698681Y-125311244D01*
X186692476Y-125320105D01*
X186460110Y-125622930D01*
X186453156Y-125631217D01*
X186195284Y-125912635D01*
X186187635Y-125920284D01*
X185906217Y-126178156D01*
X185897930Y-126185110D01*
X185595105Y-126417476D01*
X185586245Y-126423680D01*
X185551008Y-126446129D01*
X185483892Y-126465548D01*
X185416930Y-126445598D01*
X185371385Y-126392614D01*
X185361715Y-126323417D01*
X185390991Y-126259976D01*
X185405717Y-126245696D01*
X185531719Y-126142289D01*
X185792289Y-125881719D01*
X186026063Y-125596865D01*
X186230791Y-125290468D01*
X186404501Y-124965479D01*
X186545520Y-124625029D01*
X186652490Y-124272396D01*
X186652492Y-124272386D01*
X186652495Y-124272375D01*
X186724381Y-123910975D01*
X186726026Y-123894272D01*
X186760500Y-123544250D01*
X186760500Y-123175750D01*
X186724381Y-122809024D01*
X186696550Y-122669108D01*
X186652495Y-122447624D01*
X186652492Y-122447613D01*
X186652491Y-122447610D01*
X186652490Y-122447604D01*
X186545520Y-122094971D01*
X186404501Y-121754521D01*
X186230791Y-121429532D01*
X186026063Y-121123135D01*
X185792289Y-120838281D01*
X185792288Y-120838280D01*
X185792284Y-120838275D01*
X185531724Y-120577715D01*
X185246870Y-120343941D01*
X185246869Y-120343940D01*
X185246865Y-120343937D01*
X184940468Y-120139209D01*
X184940463Y-120139206D01*
X184940456Y-120139202D01*
X184615486Y-119965502D01*
X184615481Y-119965500D01*
X184589446Y-119954716D01*
X184424756Y-119886499D01*
X184275030Y-119824480D01*
X183922386Y-119717507D01*
X183922375Y-119717504D01*
X183560975Y-119645618D01*
X183284772Y-119618415D01*
X183194250Y-119609500D01*
X182825750Y-119609500D01*
X182742109Y-119617737D01*
X182459024Y-119645618D01*
X182097624Y-119717504D01*
X182097613Y-119717507D01*
X181744969Y-119824480D01*
X181404518Y-119965500D01*
X181404513Y-119965502D01*
X181079543Y-120139202D01*
X181079525Y-120139213D01*
X180773143Y-120343931D01*
X180773129Y-120343941D01*
X180488275Y-120577715D01*
X180227715Y-120838275D01*
X179993941Y-121123129D01*
X179993931Y-121123143D01*
X179789213Y-121429525D01*
X179789202Y-121429543D01*
X179615502Y-121754513D01*
X179615500Y-121754518D01*
X179474480Y-122094969D01*
X179367507Y-122447613D01*
X179367504Y-122447624D01*
X179295618Y-122809024D01*
X179273526Y-123033341D01*
X179264819Y-123121750D01*
X179259500Y-123175753D01*
X179259500Y-123544246D01*
X179295618Y-123910975D01*
X179367504Y-124272375D01*
X179367507Y-124272386D01*
X179474480Y-124625030D01*
X179615500Y-124965481D01*
X179615502Y-124965486D01*
X179789202Y-125290456D01*
X179789213Y-125290474D01*
X179993931Y-125596856D01*
X179993941Y-125596870D01*
X180227715Y-125881724D01*
X180488275Y-126142284D01*
X180488280Y-126142288D01*
X180488281Y-126142289D01*
X180773135Y-126376063D01*
X181079532Y-126580791D01*
X181079541Y-126580796D01*
X181079543Y-126580797D01*
X181404513Y-126754497D01*
X181404515Y-126754497D01*
X181404521Y-126754501D01*
X181744971Y-126895520D01*
X182062495Y-126991839D01*
X182120933Y-127030137D01*
X182149389Y-127093949D01*
X182138829Y-127163016D01*
X182092605Y-127215410D01*
X182026499Y-127234500D01*
X126993501Y-127234500D01*
X126926462Y-127214815D01*
X126880707Y-127162011D01*
X126870763Y-127092853D01*
X126899788Y-127029297D01*
X126957504Y-126991839D01*
X127275029Y-126895520D01*
X127615479Y-126754501D01*
X127940468Y-126580791D01*
X128246865Y-126376063D01*
X128531719Y-126142289D01*
X128792289Y-125881719D01*
X129026063Y-125596865D01*
X129230791Y-125290468D01*
X129404501Y-124965479D01*
X129545520Y-124625029D01*
X129652490Y-124272396D01*
X129652492Y-124272386D01*
X129652495Y-124272375D01*
X129724381Y-123910975D01*
X129726026Y-123894272D01*
X129760500Y-123544250D01*
X129760500Y-123175750D01*
X129724381Y-122809024D01*
X129696550Y-122669108D01*
X129652495Y-122447624D01*
X129652492Y-122447613D01*
X129652491Y-122447610D01*
X129652490Y-122447604D01*
X129545520Y-122094971D01*
X129404501Y-121754521D01*
X129230791Y-121429532D01*
X129026063Y-121123135D01*
X128792289Y-120838281D01*
X128792288Y-120838280D01*
X128792284Y-120838275D01*
X128531724Y-120577715D01*
X128246870Y-120343941D01*
X128246869Y-120343940D01*
X128246865Y-120343937D01*
X127940468Y-120139209D01*
X127940463Y-120139206D01*
X127940456Y-120139202D01*
X127615486Y-119965502D01*
X127615481Y-119965500D01*
X127589446Y-119954716D01*
X127424756Y-119886499D01*
X127275030Y-119824480D01*
X126922386Y-119717507D01*
X126922375Y-119717504D01*
X126560975Y-119645618D01*
X126284772Y-119618415D01*
X126194250Y-119609500D01*
X125825750Y-119609500D01*
X125742109Y-119617737D01*
X125459024Y-119645618D01*
X125097624Y-119717504D01*
X125097613Y-119717507D01*
X124744969Y-119824480D01*
X124404518Y-119965500D01*
X124404513Y-119965502D01*
X124079543Y-120139202D01*
X124079525Y-120139213D01*
X123773143Y-120343931D01*
X123773129Y-120343941D01*
X123488275Y-120577715D01*
X123227715Y-120838275D01*
X122993941Y-121123129D01*
X122993931Y-121123143D01*
X122789213Y-121429525D01*
X122789202Y-121429543D01*
X122615502Y-121754513D01*
X122615500Y-121754518D01*
X122499061Y-122035627D01*
X122455220Y-122090030D01*
X122388926Y-122112095D01*
X122321226Y-122094816D01*
X122273616Y-122043678D01*
X122260500Y-121988174D01*
X122260500Y-93609000D01*
X122280185Y-93541961D01*
X122332989Y-93496206D01*
X122384500Y-93485000D01*
X134260000Y-93485000D01*
X134260000Y-92359000D01*
X134279685Y-92291961D01*
X134332489Y-92246206D01*
X134384000Y-92235000D01*
X165010000Y-92235000D01*
X167223681Y-90021319D01*
X167285004Y-89987834D01*
X167311362Y-89985000D01*
X169285500Y-89985000D01*
X169352539Y-90004685D01*
X169398294Y-90057489D01*
X169409500Y-90109000D01*
X169409500Y-90684902D01*
X169389815Y-90751941D01*
X169373181Y-90772583D01*
X167547584Y-92598181D01*
X167486261Y-92631666D01*
X167459903Y-92634500D01*
X154346669Y-92634500D01*
X154346653Y-92634499D01*
X154339057Y-92634499D01*
X154180943Y-92634499D01*
X154100978Y-92655926D01*
X154028210Y-92675424D01*
X154028209Y-92675425D01*
X153978096Y-92704359D01*
X153978095Y-92704360D01*
X153945870Y-92722965D01*
X153891285Y-92754479D01*
X153891282Y-92754481D01*
X153814655Y-92831109D01*
X153779480Y-92866284D01*
X153779478Y-92866286D01*
X151398425Y-95247340D01*
X149047584Y-97598181D01*
X148986261Y-97631666D01*
X148959903Y-97634500D01*
X147521936Y-97634500D01*
X147454897Y-97614815D01*
X147409142Y-97562011D01*
X147399198Y-97492853D01*
X147421618Y-97437615D01*
X147466987Y-97375169D01*
X147493996Y-97337994D01*
X147576211Y-97176639D01*
X147632171Y-97004409D01*
X147646765Y-96912259D01*
X147660500Y-96825551D01*
X147660500Y-96644448D01*
X147641186Y-96522511D01*
X147632171Y-96465591D01*
X147576578Y-96294491D01*
X147576212Y-96293363D01*
X147576211Y-96293360D01*
X147520743Y-96184500D01*
X147493996Y-96132006D01*
X147480396Y-96113287D01*
X147387558Y-95985505D01*
X147387554Y-95985500D01*
X147259499Y-95857445D01*
X147259494Y-95857441D01*
X147112997Y-95751006D01*
X147112996Y-95751005D01*
X147112994Y-95751004D01*
X147061300Y-95724664D01*
X146951639Y-95668788D01*
X146951636Y-95668787D01*
X146779410Y-95612829D01*
X146600551Y-95584500D01*
X146600546Y-95584500D01*
X146419454Y-95584500D01*
X146419449Y-95584500D01*
X146240589Y-95612829D01*
X146068363Y-95668787D01*
X146068360Y-95668788D01*
X145907002Y-95751006D01*
X145760505Y-95857441D01*
X145760500Y-95857445D01*
X145632445Y-95985500D01*
X145632441Y-95985505D01*
X145526006Y-96132002D01*
X145443788Y-96293360D01*
X145443787Y-96293363D01*
X145387829Y-96465589D01*
X145359500Y-96644448D01*
X145359500Y-96825551D01*
X145387829Y-97004410D01*
X145443787Y-97176636D01*
X145443788Y-97176639D01*
X145480140Y-97247982D01*
X145520477Y-97327147D01*
X145526006Y-97337997D01*
X145598381Y-97437614D01*
X145621861Y-97503420D01*
X145606035Y-97571474D01*
X145555929Y-97620169D01*
X145498063Y-97634499D01*
X145430943Y-97634499D01*
X145354579Y-97654961D01*
X145278214Y-97675423D01*
X145278209Y-97675426D01*
X145141290Y-97754475D01*
X145141282Y-97754481D01*
X142029483Y-100866281D01*
X142029481Y-100866284D01*
X141950423Y-101003214D01*
X141950423Y-101003215D01*
X141909499Y-101155943D01*
X141909499Y-101155945D01*
X141909499Y-101314054D01*
X141909498Y-101314054D01*
X141909499Y-101314057D01*
X141950423Y-101466785D01*
X142029481Y-101603716D01*
X142141284Y-101715519D01*
X142278215Y-101794577D01*
X142430943Y-101835501D01*
X142430946Y-101835501D01*
X142589054Y-101835501D01*
X142589057Y-101835501D01*
X142741785Y-101794577D01*
X142878716Y-101715519D01*
X145722417Y-98871819D01*
X145783740Y-98838334D01*
X145810098Y-98835500D01*
X149173331Y-98835500D01*
X149173347Y-98835501D01*
X149180943Y-98835501D01*
X149339054Y-98835501D01*
X149339057Y-98835501D01*
X149491785Y-98794577D01*
X149541904Y-98765639D01*
X149628716Y-98715520D01*
X149740520Y-98603716D01*
X149740520Y-98603714D01*
X149750728Y-98593507D01*
X149750729Y-98593504D01*
X154472416Y-93871819D01*
X154533739Y-93838334D01*
X154560097Y-93835500D01*
X167673331Y-93835500D01*
X167673347Y-93835501D01*
X167680943Y-93835501D01*
X167839054Y-93835501D01*
X167839057Y-93835501D01*
X167991785Y-93794577D01*
X168041904Y-93765639D01*
X168128716Y-93715520D01*
X168240520Y-93603716D01*
X168240520Y-93603714D01*
X168250728Y-93593507D01*
X168250729Y-93593504D01*
X170490520Y-91353716D01*
X170569577Y-91216784D01*
X170610501Y-91064057D01*
X170610501Y-90905942D01*
X170610501Y-90898347D01*
X170610500Y-90898329D01*
X170610500Y-90109000D01*
X170630185Y-90041961D01*
X170682989Y-89996206D01*
X170734500Y-89985000D01*
X175823534Y-89985000D01*
X175890573Y-90004685D01*
X175936328Y-90057489D01*
X175946272Y-90126647D01*
X175917247Y-90190203D01*
X175911215Y-90196681D01*
X173899513Y-92208383D01*
X173899509Y-92208389D01*
X173840201Y-92311112D01*
X173840200Y-92311117D01*
X173809500Y-92425691D01*
X173809500Y-95247035D01*
X173789815Y-95314074D01*
X173773181Y-95334716D01*
X172859716Y-96248181D01*
X172798393Y-96281666D01*
X172772035Y-96284500D01*
X172363936Y-96284500D01*
X172301936Y-96267887D01*
X172222485Y-96222016D01*
X172082475Y-96184500D01*
X171937525Y-96184500D01*
X171808993Y-96218940D01*
X171797511Y-96222017D01*
X171671988Y-96294488D01*
X171671982Y-96294493D01*
X171569493Y-96396982D01*
X171569488Y-96396988D01*
X171497017Y-96522511D01*
X171497016Y-96522515D01*
X171459500Y-96662525D01*
X171459500Y-96807475D01*
X171464344Y-96825551D01*
X171497017Y-96947488D01*
X171569488Y-97073011D01*
X171569490Y-97073013D01*
X171569491Y-97073015D01*
X171671985Y-97175509D01*
X171671986Y-97175510D01*
X171671988Y-97175511D01*
X171797511Y-97247982D01*
X171797512Y-97247982D01*
X171797515Y-97247984D01*
X171937525Y-97285500D01*
X171937528Y-97285500D01*
X172082472Y-97285500D01*
X172082475Y-97285500D01*
X172222485Y-97247984D01*
X172301936Y-97202112D01*
X172317424Y-97197962D01*
X172329001Y-97190523D01*
X172363936Y-97185500D01*
X172472978Y-97185500D01*
X172540017Y-97205185D01*
X172585772Y-97257989D01*
X172595716Y-97327147D01*
X172566691Y-97390703D01*
X172560659Y-97397181D01*
X170435245Y-99522594D01*
X170435244Y-99522594D01*
X170435245Y-99522595D01*
X170359500Y-99598340D01*
X170293608Y-99712466D01*
X170259500Y-99839762D01*
X170259500Y-115260891D01*
X170293608Y-115388187D01*
X170326554Y-115445250D01*
X170359500Y-115502314D01*
X170359502Y-115502316D01*
X171129005Y-116271819D01*
X171162490Y-116333142D01*
X171157506Y-116402834D01*
X171115634Y-116458767D01*
X171050170Y-116483184D01*
X171041324Y-116483500D01*
X161194641Y-116483500D01*
X161179385Y-116484500D01*
X134488676Y-116484500D01*
X134421637Y-116464815D01*
X134400995Y-116448181D01*
X128496819Y-110544005D01*
X128463334Y-110482682D01*
X128460500Y-110456324D01*
X128460500Y-109240323D01*
X128460499Y-109240321D01*
X128445967Y-109167264D01*
X128445966Y-109167260D01*
X128444774Y-109165476D01*
X128390601Y-109084399D01*
X128307740Y-109029034D01*
X128307739Y-109029033D01*
X128307735Y-109029032D01*
X128234677Y-109014500D01*
X128234674Y-109014500D01*
X126683500Y-109014500D01*
X126616461Y-108994815D01*
X126570706Y-108942011D01*
X126559500Y-108890500D01*
X126559500Y-107818596D01*
X126579185Y-107751557D01*
X126595814Y-107730920D01*
X128288890Y-106037844D01*
X150310000Y-106037844D01*
X150316401Y-106097372D01*
X150316403Y-106097379D01*
X150366645Y-106232086D01*
X150366649Y-106232093D01*
X150452809Y-106347187D01*
X150452812Y-106347190D01*
X150567906Y-106433350D01*
X150567913Y-106433354D01*
X150702620Y-106483596D01*
X150702627Y-106483598D01*
X150762155Y-106489999D01*
X150762172Y-106490000D01*
X151830000Y-106490000D01*
X152330000Y-106490000D01*
X153397828Y-106490000D01*
X153397844Y-106489999D01*
X153457372Y-106483598D01*
X153457379Y-106483596D01*
X153592086Y-106433354D01*
X153592093Y-106433350D01*
X153707187Y-106347190D01*
X153707190Y-106347187D01*
X153793350Y-106232093D01*
X153793354Y-106232086D01*
X153843596Y-106097379D01*
X153843598Y-106097372D01*
X153849999Y-106037844D01*
X153850000Y-106037827D01*
X153850000Y-104485000D01*
X152330000Y-104485000D01*
X152330000Y-106490000D01*
X151830000Y-106490000D01*
X151830000Y-104485000D01*
X150310000Y-104485000D01*
X150310000Y-106037844D01*
X128288890Y-106037844D01*
X133828379Y-100498354D01*
X133889700Y-100464871D01*
X133959392Y-100469855D01*
X134015325Y-100511727D01*
X134039742Y-100577191D01*
X134038532Y-100605431D01*
X134034500Y-100630889D01*
X134034500Y-100804111D01*
X134061598Y-100975201D01*
X134115127Y-101139945D01*
X134193768Y-101294288D01*
X134295586Y-101434428D01*
X134418072Y-101556914D01*
X134482492Y-101603718D01*
X134558213Y-101658733D01*
X134682999Y-101722314D01*
X134733796Y-101770288D01*
X134750591Y-101838109D01*
X134728054Y-101904244D01*
X134673339Y-101947696D01*
X134665024Y-101950730D01*
X134616781Y-101966405D01*
X134427442Y-102062879D01*
X134255540Y-102187772D01*
X134255535Y-102187776D01*
X134105276Y-102338035D01*
X134105272Y-102338040D01*
X133980379Y-102509942D01*
X133883904Y-102699282D01*
X133818242Y-102901370D01*
X133818242Y-102901373D01*
X133807769Y-102967500D01*
X134855854Y-102967500D01*
X134817370Y-103034157D01*
X134785000Y-103154965D01*
X134785000Y-103280035D01*
X134817370Y-103400843D01*
X134855854Y-103467500D01*
X133807769Y-103467500D01*
X133818242Y-103533626D01*
X133818242Y-103533629D01*
X133883904Y-103735717D01*
X133980379Y-103925057D01*
X134105272Y-104096959D01*
X134105276Y-104096964D01*
X134255535Y-104247223D01*
X134255540Y-104247227D01*
X134427442Y-104372120D01*
X134616782Y-104468595D01*
X134818872Y-104534257D01*
X135010000Y-104564529D01*
X135010000Y-103621645D01*
X135076657Y-103660130D01*
X135197465Y-103692500D01*
X135322535Y-103692500D01*
X135443343Y-103660130D01*
X135510000Y-103621645D01*
X135510000Y-104564528D01*
X135701127Y-104534257D01*
X135903217Y-104468595D01*
X136092557Y-104372120D01*
X136264459Y-104247227D01*
X136264464Y-104247223D01*
X136386869Y-104124818D01*
X141110000Y-104124818D01*
X141110000Y-104345181D01*
X141144473Y-104562835D01*
X141212567Y-104772410D01*
X141312611Y-104968756D01*
X141358932Y-105032513D01*
X142110000Y-104281445D01*
X142110000Y-104287661D01*
X142137259Y-104389394D01*
X142189920Y-104480606D01*
X142264394Y-104555080D01*
X142355606Y-104607741D01*
X142457339Y-104635000D01*
X142463553Y-104635000D01*
X141712485Y-105386065D01*
X141712485Y-105386066D01*
X141776243Y-105432388D01*
X141972589Y-105532432D01*
X142182164Y-105600526D01*
X142399819Y-105635000D01*
X142620181Y-105635000D01*
X142837835Y-105600526D01*
X143047410Y-105532432D01*
X143243760Y-105432386D01*
X143307513Y-105386066D01*
X143307514Y-105386066D01*
X142556447Y-104635000D01*
X142562661Y-104635000D01*
X142664394Y-104607741D01*
X142755606Y-104555080D01*
X142830080Y-104480606D01*
X142882741Y-104389394D01*
X142910000Y-104287661D01*
X142910000Y-104281448D01*
X143661066Y-105032514D01*
X143661066Y-105032513D01*
X143707386Y-104968760D01*
X143807432Y-104772410D01*
X143875526Y-104562835D01*
X143899062Y-104414240D01*
X143910000Y-104345181D01*
X143910000Y-104124818D01*
X143875526Y-103907164D01*
X143807432Y-103697589D01*
X143707388Y-103501243D01*
X143661066Y-103437485D01*
X143661065Y-103437485D01*
X142910000Y-104188551D01*
X142910000Y-104182339D01*
X142882741Y-104080606D01*
X142830080Y-103989394D01*
X142755606Y-103914920D01*
X142664394Y-103862259D01*
X142562661Y-103835000D01*
X142556445Y-103835000D01*
X143307513Y-103083932D01*
X143243756Y-103037611D01*
X143047410Y-102937567D01*
X142837835Y-102869473D01*
X142620181Y-102835000D01*
X142399819Y-102835000D01*
X142182164Y-102869473D01*
X141972589Y-102937567D01*
X141776233Y-103037616D01*
X141712485Y-103083931D01*
X141712485Y-103083932D01*
X142463553Y-103835000D01*
X142457339Y-103835000D01*
X142355606Y-103862259D01*
X142264394Y-103914920D01*
X142189920Y-103989394D01*
X142137259Y-104080606D01*
X142110000Y-104182339D01*
X142110000Y-104188553D01*
X141358932Y-103437485D01*
X141358931Y-103437485D01*
X141312616Y-103501233D01*
X141212567Y-103697589D01*
X141144473Y-103907164D01*
X141110000Y-104124818D01*
X136386869Y-104124818D01*
X136414723Y-104096964D01*
X136414727Y-104096959D01*
X136450981Y-104047061D01*
X136539620Y-103925057D01*
X136636095Y-103735717D01*
X136701757Y-103533629D01*
X136701757Y-103533626D01*
X136712231Y-103467500D01*
X135664146Y-103467500D01*
X135702630Y-103400843D01*
X135735000Y-103280035D01*
X135735000Y-103154965D01*
X135702630Y-103034157D01*
X135664146Y-102967500D01*
X136712231Y-102967500D01*
X136701757Y-102901373D01*
X136701757Y-102901370D01*
X136636095Y-102699282D01*
X136539621Y-102509943D01*
X136533658Y-102501735D01*
X136533657Y-102501734D01*
X136483105Y-102432155D01*
X150310000Y-102432155D01*
X150310000Y-103985000D01*
X151830000Y-103985000D01*
X152330000Y-103985000D01*
X153850000Y-103985000D01*
X153850000Y-102432172D01*
X153849999Y-102432155D01*
X153843598Y-102372627D01*
X153843596Y-102372620D01*
X153793354Y-102237913D01*
X153793350Y-102237906D01*
X153707190Y-102122812D01*
X153707187Y-102122809D01*
X153592093Y-102036649D01*
X153592086Y-102036645D01*
X153457379Y-101986403D01*
X153457372Y-101986401D01*
X153397844Y-101980000D01*
X152330000Y-101980000D01*
X152330000Y-103985000D01*
X151830000Y-103985000D01*
X151830000Y-101980000D01*
X150762155Y-101980000D01*
X150702627Y-101986401D01*
X150702620Y-101986403D01*
X150567913Y-102036645D01*
X150567906Y-102036649D01*
X150452812Y-102122809D01*
X150452809Y-102122812D01*
X150366649Y-102237906D01*
X150366645Y-102237913D01*
X150316403Y-102372620D01*
X150316401Y-102372627D01*
X150310000Y-102432155D01*
X136483105Y-102432155D01*
X136414727Y-102338040D01*
X136414723Y-102338035D01*
X136264464Y-102187776D01*
X136264459Y-102187772D01*
X136092557Y-102062879D01*
X135903217Y-101966404D01*
X135854976Y-101950730D01*
X135797301Y-101911293D01*
X135770102Y-101846934D01*
X135782016Y-101778088D01*
X135829261Y-101726612D01*
X135837000Y-101722314D01*
X135961786Y-101658733D01*
X135961785Y-101658733D01*
X135961788Y-101658732D01*
X136101928Y-101556914D01*
X136224414Y-101434428D01*
X136326232Y-101294288D01*
X136404873Y-101139945D01*
X136458402Y-100975201D01*
X136485500Y-100804111D01*
X136485500Y-100630889D01*
X136458402Y-100459799D01*
X136404873Y-100295055D01*
X136326232Y-100140712D01*
X136224414Y-100000572D01*
X136101928Y-99878086D01*
X135961788Y-99776268D01*
X135807445Y-99697627D01*
X135642701Y-99644098D01*
X135642699Y-99644097D01*
X135642698Y-99644097D01*
X135497068Y-99621032D01*
X135471611Y-99617000D01*
X135048389Y-99617000D01*
X135022932Y-99621032D01*
X134953639Y-99612075D01*
X134900188Y-99567078D01*
X134879550Y-99500326D01*
X134898276Y-99433013D01*
X134915853Y-99410880D01*
X134972417Y-99354317D01*
X135033740Y-99320833D01*
X135060097Y-99317999D01*
X136032871Y-99317999D01*
X136032872Y-99317999D01*
X136092483Y-99311591D01*
X136227331Y-99261296D01*
X136342546Y-99175046D01*
X136428796Y-99059831D01*
X136479091Y-98924983D01*
X136485500Y-98865373D01*
X136485499Y-97569628D01*
X136479091Y-97510017D01*
X136476630Y-97503420D01*
X136428797Y-97375171D01*
X136428793Y-97375164D01*
X136342547Y-97259955D01*
X136342544Y-97259952D01*
X136227335Y-97173706D01*
X136227328Y-97173702D01*
X136092482Y-97123408D01*
X136092483Y-97123408D01*
X136032883Y-97117001D01*
X136032881Y-97117000D01*
X136032873Y-97117000D01*
X136032864Y-97117000D01*
X134487129Y-97117000D01*
X134487123Y-97117001D01*
X134427516Y-97123408D01*
X134292671Y-97173702D01*
X134292664Y-97173706D01*
X134177455Y-97259952D01*
X134177452Y-97259955D01*
X134091206Y-97375164D01*
X134091202Y-97375171D01*
X134040908Y-97510017D01*
X134035319Y-97562011D01*
X134034501Y-97569623D01*
X134034500Y-97569635D01*
X134034500Y-98542402D01*
X134014815Y-98609441D01*
X133998181Y-98630083D01*
X125478481Y-107149782D01*
X125478479Y-107149785D01*
X125428361Y-107236594D01*
X125428359Y-107236596D01*
X125399425Y-107286709D01*
X125399424Y-107286710D01*
X125399423Y-107286715D01*
X125358499Y-107439443D01*
X125358499Y-107439445D01*
X125358499Y-107607546D01*
X125358500Y-107607559D01*
X125358500Y-113707330D01*
X125358499Y-113707348D01*
X125358499Y-113873054D01*
X125358498Y-113873054D01*
X125390051Y-113990810D01*
X125399423Y-114025785D01*
X125419467Y-114060502D01*
X125428358Y-114075900D01*
X125428359Y-114075904D01*
X125428360Y-114075904D01*
X125478479Y-114162714D01*
X125478481Y-114162717D01*
X125597349Y-114281585D01*
X125597355Y-114281590D01*
X126237336Y-114921571D01*
X126270821Y-114982894D01*
X126272129Y-115028649D01*
X126259500Y-115108389D01*
X126259500Y-115281610D01*
X126286500Y-115452087D01*
X126286598Y-115452701D01*
X126340127Y-115617445D01*
X126418768Y-115771788D01*
X126520586Y-115911928D01*
X126643072Y-116034414D01*
X126783212Y-116136232D01*
X126937555Y-116214873D01*
X126940708Y-116215897D01*
X126941752Y-116216611D01*
X126942048Y-116216734D01*
X126942022Y-116216795D01*
X126998383Y-116255330D01*
X127025585Y-116319688D01*
X127013674Y-116388535D01*
X126966433Y-116440013D01*
X126940712Y-116451760D01*
X126841783Y-116483904D01*
X126652439Y-116580380D01*
X126598282Y-116619727D01*
X126598282Y-116619728D01*
X127230591Y-117252037D01*
X127167007Y-117269075D01*
X127052993Y-117334901D01*
X126959901Y-117427993D01*
X126894075Y-117542007D01*
X126877037Y-117605591D01*
X126244728Y-116973282D01*
X126244727Y-116973282D01*
X126205380Y-117027439D01*
X126108904Y-117216782D01*
X126043242Y-117418869D01*
X126043242Y-117418872D01*
X126010000Y-117628753D01*
X126010000Y-117841246D01*
X126043242Y-118051127D01*
X126043242Y-118051130D01*
X126108904Y-118253217D01*
X126205375Y-118442550D01*
X126244728Y-118496716D01*
X126877037Y-117864408D01*
X126894075Y-117927993D01*
X126959901Y-118042007D01*
X127052993Y-118135099D01*
X127167007Y-118200925D01*
X127230590Y-118217962D01*
X126598282Y-118850269D01*
X126598282Y-118850270D01*
X126652449Y-118889624D01*
X126841782Y-118986095D01*
X127043870Y-119051757D01*
X127253754Y-119085000D01*
X127466246Y-119085000D01*
X127676127Y-119051757D01*
X127676130Y-119051757D01*
X127878217Y-118986095D01*
X128067554Y-118889622D01*
X128121716Y-118850270D01*
X128121717Y-118850270D01*
X127489408Y-118217962D01*
X127552993Y-118200925D01*
X127667007Y-118135099D01*
X127760099Y-118042007D01*
X127825925Y-117927993D01*
X127842962Y-117864409D01*
X128475270Y-118496717D01*
X128475270Y-118496716D01*
X128514622Y-118442554D01*
X128611095Y-118253217D01*
X128676757Y-118051130D01*
X128676757Y-118051127D01*
X128710000Y-117841246D01*
X128710000Y-117628753D01*
X128676757Y-117418872D01*
X128676757Y-117418869D01*
X128611095Y-117216782D01*
X128514624Y-117027449D01*
X128475270Y-116973282D01*
X128475269Y-116973282D01*
X127842962Y-117605590D01*
X127825925Y-117542007D01*
X127760099Y-117427993D01*
X127667007Y-117334901D01*
X127552993Y-117269075D01*
X127489409Y-117252037D01*
X128121716Y-116619728D01*
X128067550Y-116580375D01*
X127878217Y-116483904D01*
X127779287Y-116451760D01*
X127721611Y-116412323D01*
X127694413Y-116347964D01*
X127706328Y-116279118D01*
X127753572Y-116227642D01*
X127779290Y-116215897D01*
X127782445Y-116214873D01*
X127936788Y-116136232D01*
X128076928Y-116034414D01*
X128199414Y-115911928D01*
X128301232Y-115771788D01*
X128379873Y-115617445D01*
X128433402Y-115452701D01*
X128460500Y-115281611D01*
X128460500Y-115108389D01*
X128433402Y-114937299D01*
X128419899Y-114895744D01*
X128417905Y-114825906D01*
X128453985Y-114766073D01*
X128516686Y-114735244D01*
X128586100Y-114743208D01*
X128625512Y-114769747D01*
X133806139Y-119950374D01*
X133806149Y-119950385D01*
X133810479Y-119954715D01*
X133810480Y-119954716D01*
X133922284Y-120066520D01*
X134009095Y-120116639D01*
X134009097Y-120116641D01*
X134059213Y-120145576D01*
X134059215Y-120145577D01*
X134211942Y-120186500D01*
X134211943Y-120186500D01*
X169822331Y-120186500D01*
X169822347Y-120186501D01*
X169829943Y-120186501D01*
X169988054Y-120186501D01*
X169988057Y-120186501D01*
X170140785Y-120145577D01*
X170190904Y-120116639D01*
X170277716Y-120066520D01*
X170389520Y-119954716D01*
X170389520Y-119954714D01*
X170399728Y-119944507D01*
X170399729Y-119944504D01*
X171028096Y-119316138D01*
X171089417Y-119282655D01*
X171139965Y-119282204D01*
X171156535Y-119285500D01*
X171156537Y-119285500D01*
X171363466Y-119285500D01*
X171383140Y-119281586D01*
X171497992Y-119258740D01*
X171567580Y-119264967D01*
X171609862Y-119292676D01*
X172203686Y-119886500D01*
X172317814Y-119952392D01*
X172445107Y-119986500D01*
X172445108Y-119986500D01*
X172445109Y-119986500D01*
X174384072Y-119986500D01*
X174384074Y-119986500D01*
X174511368Y-119952392D01*
X174625496Y-119886500D01*
X175451500Y-119060496D01*
X175517392Y-118946368D01*
X175551500Y-118819075D01*
X175551500Y-118687290D01*
X175551500Y-117259108D01*
X175517392Y-117131814D01*
X175451500Y-117017686D01*
X175358314Y-116924500D01*
X175050761Y-116616947D01*
X177760000Y-116616947D01*
X177760000Y-116853052D01*
X177796934Y-117086247D01*
X177869897Y-117310802D01*
X177977087Y-117521174D01*
X178037338Y-117604104D01*
X178037340Y-117604105D01*
X178736212Y-116905233D01*
X178747482Y-116947292D01*
X178819890Y-117072708D01*
X178922292Y-117175110D01*
X179047708Y-117247518D01*
X179089765Y-117258787D01*
X178390893Y-117957658D01*
X178473828Y-118017914D01*
X178684197Y-118125102D01*
X178908752Y-118198065D01*
X178908751Y-118198065D01*
X179141948Y-118235000D01*
X179378052Y-118235000D01*
X179611247Y-118198065D01*
X179835802Y-118125102D01*
X180046163Y-118017918D01*
X180046169Y-118017914D01*
X180129104Y-117957658D01*
X180129105Y-117957658D01*
X179430233Y-117258787D01*
X179472292Y-117247518D01*
X179597708Y-117175110D01*
X179700110Y-117072708D01*
X179772518Y-116947292D01*
X179783787Y-116905233D01*
X180482658Y-117604105D01*
X180482658Y-117604104D01*
X180542914Y-117521169D01*
X180542918Y-117521163D01*
X180650102Y-117310802D01*
X180723065Y-117086247D01*
X180760000Y-116853052D01*
X180760000Y-116636577D01*
X182509500Y-116636577D01*
X182509500Y-116833422D01*
X182540290Y-117027826D01*
X182601117Y-117215029D01*
X182662195Y-117334901D01*
X182690476Y-117390405D01*
X182806172Y-117549646D01*
X182945354Y-117688828D01*
X183104595Y-117804524D01*
X183187455Y-117846743D01*
X183279970Y-117893882D01*
X183279972Y-117893882D01*
X183279975Y-117893884D01*
X183380317Y-117926487D01*
X183467173Y-117954709D01*
X183661578Y-117985500D01*
X183661583Y-117985500D01*
X183858422Y-117985500D01*
X184052826Y-117954709D01*
X184240025Y-117893884D01*
X184415405Y-117804524D01*
X184574646Y-117688828D01*
X184713828Y-117549646D01*
X184829524Y-117390405D01*
X184918884Y-117215025D01*
X184979709Y-117027826D01*
X184981315Y-117017686D01*
X185010500Y-116833422D01*
X185010500Y-116636577D01*
X184979709Y-116442173D01*
X184931853Y-116294890D01*
X184918884Y-116254975D01*
X184918882Y-116254972D01*
X184918882Y-116254970D01*
X184829523Y-116079594D01*
X184713828Y-115920354D01*
X184574646Y-115781172D01*
X184415405Y-115665476D01*
X184240029Y-115576117D01*
X184052826Y-115515290D01*
X183858422Y-115484500D01*
X183858417Y-115484500D01*
X183661583Y-115484500D01*
X183661578Y-115484500D01*
X183467173Y-115515290D01*
X183279970Y-115576117D01*
X183104594Y-115665476D01*
X183013741Y-115731485D01*
X182945354Y-115781172D01*
X182945352Y-115781174D01*
X182945351Y-115781174D01*
X182806174Y-115920351D01*
X182806174Y-115920352D01*
X182806172Y-115920354D01*
X182785483Y-115948830D01*
X182690476Y-116079594D01*
X182601117Y-116254970D01*
X182540290Y-116442173D01*
X182509500Y-116636577D01*
X180760000Y-116636577D01*
X180760000Y-116616947D01*
X180723065Y-116383752D01*
X180650102Y-116159197D01*
X180542914Y-115948828D01*
X180482658Y-115865894D01*
X180482658Y-115865893D01*
X179783787Y-116564765D01*
X179772518Y-116522708D01*
X179700110Y-116397292D01*
X179597708Y-116294890D01*
X179472292Y-116222482D01*
X179430234Y-116211212D01*
X180129105Y-115512340D01*
X180129104Y-115512338D01*
X180046174Y-115452087D01*
X179835802Y-115344897D01*
X179611247Y-115271934D01*
X179611248Y-115271934D01*
X179378052Y-115235000D01*
X179141948Y-115235000D01*
X178908752Y-115271934D01*
X178684197Y-115344897D01*
X178473830Y-115452084D01*
X178390894Y-115512340D01*
X179089766Y-116211212D01*
X179047708Y-116222482D01*
X178922292Y-116294890D01*
X178819890Y-116397292D01*
X178747482Y-116522708D01*
X178736212Y-116564766D01*
X178037340Y-115865894D01*
X177977084Y-115948830D01*
X177869897Y-116159197D01*
X177796934Y-116383752D01*
X177760000Y-116616947D01*
X175050761Y-116616947D01*
X171997819Y-113564005D01*
X171964334Y-113502682D01*
X171961500Y-113476324D01*
X171961500Y-111076494D01*
X171981185Y-111009455D01*
X172033989Y-110963700D01*
X172103147Y-110953756D01*
X172147499Y-110969107D01*
X172209995Y-111005190D01*
X172278209Y-111044574D01*
X172278212Y-111044576D01*
X172278214Y-111044576D01*
X172278215Y-111044577D01*
X172430943Y-111085501D01*
X172430946Y-111085501D01*
X172589054Y-111085501D01*
X172589057Y-111085501D01*
X172741785Y-111044577D01*
X172878716Y-110965519D01*
X173727288Y-110116947D01*
X177760000Y-110116947D01*
X177760000Y-110353052D01*
X177796934Y-110586247D01*
X177869897Y-110810802D01*
X177977087Y-111021174D01*
X178037338Y-111104104D01*
X178037340Y-111104105D01*
X178736212Y-110405233D01*
X178747482Y-110447292D01*
X178819890Y-110572708D01*
X178922292Y-110675110D01*
X179047708Y-110747518D01*
X179089765Y-110758787D01*
X178390893Y-111457658D01*
X178473828Y-111517914D01*
X178684197Y-111625102D01*
X178908752Y-111698065D01*
X178908751Y-111698065D01*
X179141948Y-111735000D01*
X179378052Y-111735000D01*
X179611247Y-111698065D01*
X179835802Y-111625102D01*
X180046163Y-111517918D01*
X180046169Y-111517914D01*
X180129104Y-111457658D01*
X180129105Y-111457658D01*
X179430233Y-110758787D01*
X179472292Y-110747518D01*
X179597708Y-110675110D01*
X179700110Y-110572708D01*
X179772518Y-110447292D01*
X179783787Y-110405233D01*
X180482658Y-111104105D01*
X180482658Y-111104104D01*
X180542914Y-111021169D01*
X180542918Y-111021163D01*
X180650102Y-110810802D01*
X180723065Y-110586247D01*
X180760000Y-110353052D01*
X180760000Y-110136577D01*
X182509500Y-110136577D01*
X182509500Y-110333422D01*
X182540290Y-110527826D01*
X182601117Y-110715029D01*
X182671782Y-110853716D01*
X182690476Y-110890405D01*
X182806172Y-111049646D01*
X182945354Y-111188828D01*
X183104595Y-111304524D01*
X183173240Y-111339500D01*
X183279970Y-111393882D01*
X183279972Y-111393882D01*
X183279975Y-111393884D01*
X183380317Y-111426487D01*
X183467173Y-111454709D01*
X183661578Y-111485500D01*
X183661583Y-111485500D01*
X183858422Y-111485500D01*
X184052826Y-111454709D01*
X184240025Y-111393884D01*
X184415405Y-111304524D01*
X184574646Y-111188828D01*
X184713828Y-111049646D01*
X184829524Y-110890405D01*
X184918884Y-110715025D01*
X184979709Y-110527826D01*
X184991034Y-110456324D01*
X185010500Y-110333422D01*
X185010500Y-110136577D01*
X184979709Y-109942173D01*
X184918882Y-109754970D01*
X184829523Y-109579594D01*
X184713828Y-109420354D01*
X184574646Y-109281172D01*
X184415405Y-109165476D01*
X184240029Y-109076117D01*
X184052826Y-109015290D01*
X183858422Y-108984500D01*
X183858417Y-108984500D01*
X183661583Y-108984500D01*
X183661578Y-108984500D01*
X183467173Y-109015290D01*
X183279970Y-109076117D01*
X183104594Y-109165476D01*
X183013741Y-109231485D01*
X182945354Y-109281172D01*
X182945352Y-109281174D01*
X182945351Y-109281174D01*
X182806174Y-109420351D01*
X182806174Y-109420352D01*
X182806172Y-109420354D01*
X182785483Y-109448830D01*
X182690476Y-109579594D01*
X182601117Y-109754970D01*
X182540290Y-109942173D01*
X182509500Y-110136577D01*
X180760000Y-110136577D01*
X180760000Y-110116947D01*
X180723065Y-109883752D01*
X180650102Y-109659197D01*
X180542914Y-109448828D01*
X180482658Y-109365894D01*
X180482658Y-109365893D01*
X179783787Y-110064765D01*
X179772518Y-110022708D01*
X179700110Y-109897292D01*
X179597708Y-109794890D01*
X179472292Y-109722482D01*
X179430234Y-109711212D01*
X180129105Y-109012340D01*
X180129104Y-109012338D01*
X180046174Y-108952087D01*
X179835802Y-108844897D01*
X179611247Y-108771934D01*
X179611248Y-108771934D01*
X179378052Y-108735000D01*
X179141948Y-108735000D01*
X178908752Y-108771934D01*
X178684197Y-108844897D01*
X178473830Y-108952084D01*
X178390894Y-109012340D01*
X179089766Y-109711212D01*
X179047708Y-109722482D01*
X178922292Y-109794890D01*
X178819890Y-109897292D01*
X178747482Y-110022708D01*
X178736212Y-110064766D01*
X178037340Y-109365894D01*
X177977084Y-109448830D01*
X177869897Y-109659197D01*
X177796934Y-109883752D01*
X177760000Y-110116947D01*
X173727288Y-110116947D01*
X178972417Y-104871819D01*
X179033740Y-104838334D01*
X179060098Y-104835500D01*
X179795500Y-104835500D01*
X179862539Y-104855185D01*
X179908294Y-104907989D01*
X179919500Y-104959500D01*
X179919500Y-106014678D01*
X179934032Y-106087735D01*
X179934033Y-106087739D01*
X179934034Y-106087740D01*
X179989399Y-106170601D01*
X180072260Y-106225966D01*
X180072264Y-106225967D01*
X180145321Y-106240499D01*
X180145324Y-106240500D01*
X180145326Y-106240500D01*
X182734676Y-106240500D01*
X182734677Y-106240499D01*
X182807740Y-106225966D01*
X182890601Y-106170601D01*
X182945966Y-106087740D01*
X182960500Y-106014674D01*
X182960500Y-102455326D01*
X182960500Y-102455323D01*
X182960499Y-102455321D01*
X182945967Y-102382264D01*
X182945966Y-102382260D01*
X182890601Y-102299399D01*
X182807740Y-102244034D01*
X182807739Y-102244033D01*
X182807735Y-102244032D01*
X182734677Y-102229500D01*
X182734674Y-102229500D01*
X180145326Y-102229500D01*
X180145323Y-102229500D01*
X180072264Y-102244032D01*
X180072260Y-102244033D01*
X179989399Y-102299399D01*
X179934033Y-102382260D01*
X179934032Y-102382264D01*
X179919500Y-102455321D01*
X179919500Y-103510500D01*
X179899815Y-103577539D01*
X179847011Y-103623294D01*
X179795500Y-103634500D01*
X178846670Y-103634500D01*
X178846654Y-103634499D01*
X178839058Y-103634499D01*
X178680943Y-103634499D01*
X178604579Y-103654961D01*
X178528214Y-103675423D01*
X178528209Y-103675426D01*
X178391290Y-103754475D01*
X178391282Y-103754481D01*
X172173181Y-109972583D01*
X172111858Y-110006068D01*
X172042166Y-110001084D01*
X171986233Y-109959212D01*
X171961816Y-109893748D01*
X171961500Y-109884902D01*
X171961500Y-101292675D01*
X171981185Y-101225636D01*
X171997814Y-101204999D01*
X182174905Y-91027907D01*
X182215133Y-91001029D01*
X182222478Y-90997985D01*
X182222485Y-90997984D01*
X182348015Y-90925509D01*
X182450509Y-90823015D01*
X182522984Y-90697485D01*
X182560500Y-90557475D01*
X182560500Y-90412525D01*
X182522984Y-90272515D01*
X182493556Y-90221545D01*
X182450511Y-90146988D01*
X182450506Y-90146982D01*
X182348017Y-90044493D01*
X182348011Y-90044488D01*
X182222488Y-89972017D01*
X182222489Y-89972017D01*
X182211006Y-89968940D01*
X182082475Y-89934500D01*
X181937525Y-89934500D01*
X181808993Y-89968940D01*
X181797511Y-89972017D01*
X181671988Y-90044488D01*
X181671982Y-90044493D01*
X181569493Y-90146982D01*
X181569489Y-90146988D01*
X181497016Y-90272515D01*
X181493968Y-90279873D01*
X181467091Y-90320093D01*
X171472181Y-100315004D01*
X171452744Y-100325616D01*
X171436011Y-100340117D01*
X171422679Y-100342033D01*
X171410858Y-100348489D01*
X171388771Y-100346909D01*
X171366853Y-100350061D01*
X171354601Y-100344465D01*
X171341166Y-100343505D01*
X171323439Y-100330234D01*
X171303297Y-100321036D01*
X171296014Y-100309704D01*
X171285233Y-100301633D01*
X171277495Y-100280887D01*
X171265523Y-100262258D01*
X171262371Y-100240339D01*
X171260816Y-100236169D01*
X171260500Y-100227323D01*
X171260500Y-100164328D01*
X171280185Y-100097289D01*
X171296814Y-100076652D01*
X180807104Y-90566361D01*
X180807109Y-90566358D01*
X180817312Y-90556154D01*
X180817314Y-90556154D01*
X180910500Y-90462968D01*
X180976392Y-90348840D01*
X181010500Y-90221546D01*
X181010500Y-87752288D01*
X181019941Y-87704831D01*
X181022982Y-87697488D01*
X181022981Y-87697488D01*
X181022984Y-87697485D01*
X181060500Y-87557475D01*
X181060500Y-87412525D01*
X181022984Y-87272515D01*
X181012798Y-87254873D01*
X180950511Y-87146988D01*
X180950506Y-87146982D01*
X180848017Y-87044493D01*
X180848011Y-87044488D01*
X180722488Y-86972017D01*
X180722489Y-86972017D01*
X180700783Y-86966201D01*
X180582475Y-86934500D01*
X180437525Y-86934500D01*
X180437523Y-86934500D01*
X180429469Y-86935561D01*
X180429044Y-86932336D01*
X180374379Y-86931013D01*
X180316532Y-86891827D01*
X180292409Y-86845012D01*
X180272984Y-86772515D01*
X180213891Y-86670164D01*
X180200511Y-86646988D01*
X180200506Y-86646982D01*
X180098017Y-86544493D01*
X180098011Y-86544488D01*
X179972488Y-86472017D01*
X179972489Y-86472017D01*
X179961006Y-86468940D01*
X179832475Y-86434500D01*
X179687525Y-86434500D01*
X179558993Y-86468940D01*
X179547511Y-86472017D01*
X179421988Y-86544488D01*
X179421982Y-86544493D01*
X179319493Y-86646982D01*
X179319488Y-86646988D01*
X179247017Y-86772511D01*
X179247015Y-86772516D01*
X179223269Y-86861133D01*
X179191176Y-86916718D01*
X176223609Y-89884286D01*
X176162286Y-89917771D01*
X176092594Y-89912787D01*
X176036661Y-89870915D01*
X176012244Y-89805451D01*
X176011934Y-89795371D01*
X176087267Y-82412763D01*
X176107635Y-82345931D01*
X176123573Y-82326358D01*
X178578113Y-79871819D01*
X178639436Y-79838334D01*
X178665794Y-79835500D01*
X180589055Y-79835500D01*
X180589057Y-79835500D01*
X180741784Y-79794577D01*
X180878716Y-79715520D01*
X180990520Y-79603716D01*
X181024347Y-79545124D01*
X181074913Y-79496910D01*
X181143520Y-79483686D01*
X181208385Y-79509654D01*
X181219415Y-79519444D01*
X184723181Y-83023210D01*
X184756666Y-83084533D01*
X184759500Y-83110891D01*
X184759500Y-88717710D01*
X184750063Y-88765159D01*
X184747016Y-88772513D01*
X184736041Y-88813474D01*
X184709500Y-88912525D01*
X184709500Y-89057475D01*
X184747016Y-89197485D01*
X184747017Y-89197488D01*
X184819488Y-89323011D01*
X184819490Y-89323013D01*
X184819491Y-89323015D01*
X184921985Y-89425509D01*
X184921986Y-89425510D01*
X184921988Y-89425511D01*
X185047511Y-89497982D01*
X185047512Y-89497982D01*
X185047515Y-89497984D01*
X185187525Y-89535500D01*
X185187528Y-89535500D01*
X185332472Y-89535500D01*
X185332475Y-89535500D01*
X185472485Y-89497984D01*
X185598015Y-89425509D01*
X185700509Y-89323015D01*
X185772984Y-89197485D01*
X185810500Y-89057475D01*
X185810500Y-88912525D01*
X185772984Y-88772515D01*
X185772983Y-88772513D01*
X185769937Y-88765159D01*
X185760500Y-88717710D01*
X185760500Y-82786325D01*
X185760500Y-82786323D01*
X185726392Y-82659029D01*
X185660500Y-82544901D01*
X185567314Y-82451715D01*
X180700099Y-77584500D01*
X180643035Y-77551554D01*
X180585972Y-77518608D01*
X180522324Y-77501554D01*
X180458677Y-77484500D01*
X180458676Y-77484500D01*
X179777289Y-77484500D01*
X179729838Y-77475062D01*
X179722486Y-77472016D01*
X179687482Y-77462637D01*
X179582475Y-77434500D01*
X179437525Y-77434500D01*
X179353519Y-77457009D01*
X179297513Y-77472016D01*
X179290162Y-77475062D01*
X179242711Y-77484500D01*
X176694108Y-77484500D01*
X176566812Y-77518608D01*
X176452686Y-77584500D01*
X176348050Y-77689136D01*
X176286727Y-77722620D01*
X176217035Y-77717636D01*
X176161102Y-77675764D01*
X176136685Y-77610299D01*
X176136375Y-77600204D01*
X176260000Y-65485000D01*
X176260000Y-65359000D01*
X176279685Y-65291961D01*
X176332489Y-65246206D01*
X176384000Y-65235000D01*
X187385500Y-65235000D01*
X187452539Y-65254685D01*
G37*
%TD.AperFunction*%
%TD*%
M02*
