M48
; DRILL file {KiCad 9.0.7-9.0.7~ubuntu22.04.1} date 2026-01-30T05:50:50+0530
; FORMAT={-:-/ absolute / metric / decimal}
; #@! TF.CreationDate,2026-01-30T05:50:50+05:30
; #@! TF.GenerationSoftware,Kicad,Pcbnew,9.0.7-9.0.7~ubuntu22.04.1
; #@! TF.FileFunction,Plated,1,2,PTH
FMAT,2
METRIC
; #@! TA.AperFunction,Plated,PTH,ViaDrill
T1C0.300
; #@! TA.AperFunction,Plated,PTH,ViaDrill
T2C0.350
; #@! TA.AperFunction,Plated,PTH,ComponentDrill
T3C0.500
; #@! TA.AperFunction,Plated,PTH,ComponentDrill
T4C0.800
; #@! TA.AperFunction,Plated,PTH,ComponentDrill
T5C0.950
; #@! TA.AperFunction,Plated,PTH,ComponentDrill
T6C1.000
; #@! TA.AperFunction,Plated,PTH,ComponentDrill
T7C1.100
; #@! TA.AperFunction,Plated,PTH,ComponentDrill
T8C1.290
; #@! TA.AperFunction,Plated,PTH,ComponentDrill
T9C1.300
; #@! TA.AperFunction,Plated,PTH,ComponentDrill
T10C1.320
; #@! TA.AperFunction,Plated,PTH,ComponentDrill
T11C1.980
; #@! TA.AperFunction,Plated,PTH,ComponentDrill
T12C3.500
%
G90
G05
T1
X142.51Y-101.235
X172.01Y-96.735
X172.51Y-110.485
X179.51Y-77.985
X179.76Y-86.985
X180.51Y-79.235
X180.51Y-87.485
X182.01Y-90.485
X185.26Y-88.985
T2
X174.76Y-109.985
X181.26Y-83.735
X184.01Y-90.235
X186.51Y-108.485
T3
X123.385Y-52.11
X123.385Y-123.36
X124.154Y-50.254
X124.154Y-53.966
X124.154Y-121.504
X124.154Y-125.216
X126.01Y-49.485
X126.01Y-54.735
X126.01Y-120.735
X126.01Y-125.985
X127.866Y-50.254
X127.866Y-53.966
X127.866Y-121.504
X127.866Y-125.216
X128.635Y-52.11
X128.635Y-123.36
X180.385Y-52.11
X180.385Y-123.36
X181.154Y-50.254
X181.154Y-53.966
X181.154Y-121.504
X181.154Y-125.216
X183.01Y-49.485
X183.01Y-54.735
X183.01Y-120.735
X183.01Y-125.985
X184.866Y-50.254
X184.866Y-53.966
X184.866Y-121.504
X184.866Y-125.216
X185.635Y-52.11
X185.635Y-123.36
T4
X142.51Y-104.235
X146.51Y-96.735
X163.64Y-118.235
X166.18Y-118.235
X168.72Y-118.235
X171.26Y-118.235
X173.8Y-118.235
T5
X135.26Y-98.218
X135.26Y-100.718
X135.26Y-103.218
T6
X127.36Y-110.115
X127.36Y-112.655
X127.36Y-115.195
X127.36Y-117.735
X139.26Y-86.235
X144.26Y-57.155
X149.26Y-57.155
X154.26Y-86.235
T7
X179.26Y-110.235
X179.26Y-116.735
X183.76Y-110.235
X183.76Y-116.735
T8
X167.76Y-88.02
T9
X162.26Y-60.485
X167.26Y-60.485
X174.26Y-60.485
X179.26Y-60.485
T10
X161.76Y-73.82
X161.76Y-86.02
X173.76Y-73.82
X173.76Y-86.02
T11
X129.75Y-57.16
X129.75Y-64.78
X129.75Y-83.75
X129.75Y-91.37
T12
X126.01Y-52.11
X126.01Y-123.36
X183.01Y-52.11
X183.01Y-123.36
M30
